<?xml version="1.0" encoding="utf-8"?>
<svg xmlns="http://www.w3.org/2000/svg" xmlns:xlink="http://www.w3.org/1999/xlink" xml:space="preserve" width="419.33333333333" height="470.75" viewBox="0 0 419.33333333333 470.75"><rect width="352.93888888889" height="352.93888888889" fill="#ffffff" x="34.944444444444" y="86.361111111111"/><g transform="scale(17.472222222222)" fill="#000000"><path d="M0,6h1.7v19.3h20.7V6H24l-1-2l1-2h-1V0H1v2H0l1,2L0,6z M22,25H2V6V5h20v1V25z"/></g><g transform="translate(0,51.416666666667)" fill="#000000">
<g transform="translate(125.66666666667,61.666666666667) scale(1.3733333333333)"><rect width="6" height="6"/></g>
<g transform="translate(133.66666666667,61.666666666667) scale(1.3733333333333)"><rect width="6" height="6"/></g>
<g transform="translate(141.66666666667,61.666666666667) scale(1.3733333333333)"><rect width="6" height="6"/></g>
<g transform="translate(149.66666666667,61.666666666667) scale(1.3733333333333)"><rect width="6" height="6"/></g>
<g transform="translate(157.66666666667,61.666666666667) scale(1.3733333333333)"><rect width="6" height="6"/></g>
<g transform="translate(197.66666666667,61.666666666667) scale(1.3733333333333)"><rect width="6" height="6"/></g>
<g transform="translate(213.66666666667,61.666666666667) scale(1.3733333333333)"><rect width="6" height="6"/></g>
<g transform="translate(229.66666666667,61.666666666667) scale(1.3733333333333)"><rect width="6" height="6"/></g>
<g transform="translate(237.66666666667,61.666666666667) scale(1.3733333333333)"><rect width="6" height="6"/></g>
<g transform="translate(245.66666666667,61.666666666667) scale(1.3733333333333)"><rect width="6" height="6"/></g>
<g transform="translate(269.66666666667,61.666666666667) scale(1.3733333333333)"><rect width="6" height="6"/></g>
<g transform="translate(285.66666666667,61.666666666667) scale(1.3733333333333)"><rect width="6" height="6"/></g>
<g transform="translate(125.66666666667,69.666666666667) scale(1.3733333333333)"><rect width="6" height="6"/></g>
<g transform="translate(149.66666666667,69.666666666667) scale(1.3733333333333)"><rect width="6" height="6"/></g>
<g transform="translate(157.66666666667,69.666666666667) scale(1.3733333333333)"><rect width="6" height="6"/></g>
<g transform="translate(173.66666666667,69.666666666667) scale(1.3733333333333)"><rect width="6" height="6"/></g>
<g transform="translate(181.66666666667,69.666666666667) scale(1.3733333333333)"><rect width="6" height="6"/></g>
<g transform="translate(189.66666666667,69.666666666667) scale(1.3733333333333)"><rect width="6" height="6"/></g>
<g transform="translate(205.66666666667,69.666666666667) scale(1.3733333333333)"><rect width="6" height="6"/></g>
<g transform="translate(213.66666666667,69.666666666667) scale(1.3733333333333)"><rect width="6" height="6"/></g>
<g transform="translate(237.66666666667,69.666666666667) scale(1.3733333333333)"><rect width="6" height="6"/></g>
<g transform="translate(245.66666666667,69.666666666667) scale(1.3733333333333)"><rect width="6" height="6"/></g>
<g transform="translate(253.66666666667,69.666666666667) scale(1.3733333333333)"><rect width="6" height="6"/></g>
<g transform="translate(261.66666666667,69.666666666667) scale(1.3733333333333)"><rect width="6" height="6"/></g>
<g transform="translate(277.66666666667,69.666666666667) scale(1.3733333333333)"><rect width="6" height="6"/></g>
<g transform="translate(125.66666666667,77.666666666667) scale(1.3733333333333)"><rect width="6" height="6"/></g>
<g transform="translate(157.66666666667,77.666666666667) scale(1.3733333333333)"><rect width="6" height="6"/></g>
<g transform="translate(205.66666666667,77.666666666667) scale(1.3733333333333)"><rect width="6" height="6"/></g>
<g transform="translate(213.66666666667,77.666666666667) scale(1.3733333333333)"><rect width="6" height="6"/></g>
<g transform="translate(237.66666666667,77.666666666667) scale(1.3733333333333)"><rect width="6" height="6"/></g>
<g transform="translate(245.66666666667,77.666666666667) scale(1.3733333333333)"><rect width="6" height="6"/></g>
<g transform="translate(277.66666666667,77.666666666667) scale(1.3733333333333)"><rect width="6" height="6"/></g>
<g transform="translate(141.66666666667,85.666666666667) scale(1.3733333333333)"><rect width="6" height="6"/></g>
<g transform="translate(157.66666666667,85.666666666667) scale(1.3733333333333)"><rect width="6" height="6"/></g>
<g transform="translate(173.66666666667,85.666666666667) scale(1.3733333333333)"><rect width="6" height="6"/></g>
<g transform="translate(189.66666666667,85.666666666667) scale(1.3733333333333)"><rect width="6" height="6"/></g>
<g transform="translate(197.66666666667,85.666666666667) scale(1.3733333333333)"><rect width="6" height="6"/></g>
<g transform="translate(237.66666666667,85.666666666667) scale(1.3733333333333)"><rect width="6" height="6"/></g>
<g transform="translate(253.66666666667,85.666666666667) scale(1.3733333333333)"><rect width="6" height="6"/></g>
<g transform="translate(269.66666666667,85.666666666667) scale(1.3733333333333)"><rect width="6" height="6"/></g>
<g transform="translate(277.66666666667,85.666666666667) scale(1.3733333333333)"><rect width="6" height="6"/></g>
<g transform="translate(149.66666666667,93.666666666667) scale(1.3733333333333)"><rect width="6" height="6"/></g>
<g transform="translate(165.66666666667,93.666666666667) scale(1.3733333333333)"><rect width="6" height="6"/></g>
<g transform="translate(181.66666666667,93.666666666667) scale(1.3733333333333)"><rect width="6" height="6"/></g>
<g transform="translate(205.66666666667,93.666666666667) scale(1.3733333333333)"><rect width="6" height="6"/></g>
<g transform="translate(221.66666666667,93.666666666667) scale(1.3733333333333)"><rect width="6" height="6"/></g>
<g transform="translate(237.66666666667,93.666666666667) scale(1.3733333333333)"><rect width="6" height="6"/></g>
<g transform="translate(253.66666666667,93.666666666667) scale(1.3733333333333)"><rect width="6" height="6"/></g>
<g transform="translate(125.66666666667,101.66666666667) scale(1.3733333333333)"><rect width="6" height="6"/></g>
<g transform="translate(141.66666666667,101.66666666667) scale(1.3733333333333)"><rect width="6" height="6"/></g>
<g transform="translate(165.66666666667,101.66666666667) scale(1.3733333333333)"><rect width="6" height="6"/></g>
<g transform="translate(213.66666666667,101.66666666667) scale(1.3733333333333)"><rect width="6" height="6"/></g>
<g transform="translate(221.66666666667,101.66666666667) scale(1.3733333333333)"><rect width="6" height="6"/></g>
<g transform="translate(237.66666666667,101.66666666667) scale(1.3733333333333)"><rect width="6" height="6"/></g>
<g transform="translate(245.66666666667,101.66666666667) scale(1.3733333333333)"><rect width="6" height="6"/></g>
<g transform="translate(277.66666666667,101.66666666667) scale(1.3733333333333)"><rect width="6" height="6"/></g>
<g transform="translate(285.66666666667,101.66666666667) scale(1.3733333333333)"><rect width="6" height="6"/></g>
<g transform="translate(125.66666666667,109.66666666667) scale(1.3733333333333)"><rect width="6" height="6"/></g>
<g transform="translate(141.66666666667,109.66666666667) scale(1.3733333333333)"><rect width="6" height="6"/></g>
<g transform="translate(157.66666666667,109.66666666667) scale(1.3733333333333)"><rect width="6" height="6"/></g>
<g transform="translate(173.66666666667,109.66666666667) scale(1.3733333333333)"><rect width="6" height="6"/></g>
<g transform="translate(189.66666666667,109.66666666667) scale(1.3733333333333)"><rect width="6" height="6"/></g>
<g transform="translate(205.66666666667,109.66666666667) scale(1.3733333333333)"><rect width="6" height="6"/></g>
<g transform="translate(221.66666666667,109.66666666667) scale(1.3733333333333)"><rect width="6" height="6"/></g>
<g transform="translate(237.66666666667,109.66666666667) scale(1.3733333333333)"><rect width="6" height="6"/></g>
<g transform="translate(253.66666666667,109.66666666667) scale(1.3733333333333)"><rect width="6" height="6"/></g>
<g transform="translate(269.66666666667,109.66666666667) scale(1.3733333333333)"><rect width="6" height="6"/></g>
<g transform="translate(285.66666666667,109.66666666667) scale(1.3733333333333)"><rect width="6" height="6"/></g>
<g transform="translate(125.66666666667,117.66666666667) scale(1.3733333333333)"><rect width="6" height="6"/></g>
<g transform="translate(133.66666666667,117.66666666667) scale(1.3733333333333)"><rect width="6" height="6"/></g>
<g transform="translate(141.66666666667,117.66666666667) scale(1.3733333333333)"><rect width="6" height="6"/></g>
<g transform="translate(165.66666666667,117.66666666667) scale(1.3733333333333)"><rect width="6" height="6"/></g>
<g transform="translate(173.66666666667,117.66666666667) scale(1.3733333333333)"><rect width="6" height="6"/></g>
<g transform="translate(221.66666666667,117.66666666667) scale(1.3733333333333)"><rect width="6" height="6"/></g>
<g transform="translate(245.66666666667,117.66666666667) scale(1.3733333333333)"><rect width="6" height="6"/></g>
<g transform="translate(269.66666666667,117.66666666667) scale(1.3733333333333)"><rect width="6" height="6"/></g>
<g transform="translate(285.66666666667,117.66666666667) scale(1.3733333333333)"><rect width="6" height="6"/></g>
<g transform="translate(77.666666666667,125.66666666667) scale(1.3733333333333)"><rect width="6" height="6"/></g>
<g transform="translate(85.666666666667,125.66666666667) scale(1.3733333333333)"><rect width="6" height="6"/></g>
<g transform="translate(93.666666666667,125.66666666667) scale(1.3733333333333)"><rect width="6" height="6"/></g>
<g transform="translate(109.66666666667,125.66666666667) scale(1.3733333333333)"><rect width="6" height="6"/></g>
<g transform="translate(125.66666666667,125.66666666667) scale(1.3733333333333)"><rect width="6" height="6"/></g>
<g transform="translate(141.66666666667,125.66666666667) scale(1.3733333333333)"><rect width="6" height="6"/></g>
<g transform="translate(149.66666666667,125.66666666667) scale(1.3733333333333)"><rect width="6" height="6"/></g>
<g transform="translate(157.66666666667,125.66666666667) scale(1.3733333333333)"><rect width="6" height="6"/></g>
<g transform="translate(165.66666666667,125.66666666667) scale(1.3733333333333)"><rect width="6" height="6"/></g>
<g transform="translate(181.66666666667,125.66666666667) scale(1.3733333333333)"><rect width="6" height="6"/></g>
<g transform="translate(189.66666666667,125.66666666667) scale(1.3733333333333)"><rect width="6" height="6"/></g>
<g transform="translate(205.66666666667,125.66666666667) scale(1.3733333333333)"><rect width="6" height="6"/></g>
<g transform="translate(229.66666666667,125.66666666667) scale(1.3733333333333)"><rect width="6" height="6"/></g>
<g transform="translate(245.66666666667,125.66666666667) scale(1.3733333333333)"><rect width="6" height="6"/></g>
<g transform="translate(293.66666666667,125.66666666667) scale(1.3733333333333)"><rect width="6" height="6"/></g>
<g transform="translate(301.66666666667,125.66666666667) scale(1.3733333333333)"><rect width="6" height="6"/></g>
<g transform="translate(309.66666666667,125.66666666667) scale(1.3733333333333)"><rect width="6" height="6"/></g>
<g transform="translate(333.66666666667,125.66666666667) scale(1.3733333333333)"><rect width="6" height="6"/></g>
<g transform="translate(341.66666666667,125.66666666667) scale(1.3733333333333)"><rect width="6" height="6"/></g>
<g transform="translate(349.66666666667,125.66666666667) scale(1.3733333333333)"><rect width="6" height="6"/></g>
<g transform="translate(77.666666666667,133.66666666667) scale(1.3733333333333)"><rect width="6" height="6"/></g>
<g transform="translate(101.66666666667,133.66666666667) scale(1.3733333333333)"><rect width="6" height="6"/></g>
<g transform="translate(117.66666666667,133.66666666667) scale(1.3733333333333)"><rect width="6" height="6"/></g>
<g transform="translate(125.66666666667,133.66666666667) scale(1.3733333333333)"><rect width="6" height="6"/></g>
<g transform="translate(141.66666666667,133.66666666667) scale(1.3733333333333)"><rect width="6" height="6"/></g>
<g transform="translate(149.66666666667,133.66666666667) scale(1.3733333333333)"><rect width="6" height="6"/></g>
<g transform="translate(181.66666666667,133.66666666667) scale(1.3733333333333)"><rect width="6" height="6"/></g>
<g transform="translate(197.66666666667,133.66666666667) scale(1.3733333333333)"><rect width="6" height="6"/></g>
<g transform="translate(205.66666666667,133.66666666667) scale(1.3733333333333)"><rect width="6" height="6"/></g>
<g transform="translate(237.66666666667,133.66666666667) scale(1.3733333333333)"><rect width="6" height="6"/></g>
<g transform="translate(261.66666666667,133.66666666667) scale(1.3733333333333)"><rect width="6" height="6"/></g>
<g transform="translate(269.66666666667,133.66666666667) scale(1.3733333333333)"><rect width="6" height="6"/></g>
<g transform="translate(277.66666666667,133.66666666667) scale(1.3733333333333)"><rect width="6" height="6"/></g>
<g transform="translate(285.66666666667,133.66666666667) scale(1.3733333333333)"><rect width="6" height="6"/></g>
<g transform="translate(301.66666666667,133.66666666667) scale(1.3733333333333)"><rect width="6" height="6"/></g>
<g transform="translate(325.66666666667,133.66666666667) scale(1.3733333333333)"><rect width="6" height="6"/></g>
<g transform="translate(69.666666666667,141.66666666667) scale(1.3733333333333)"><rect width="6" height="6"/></g>
<g transform="translate(77.666666666667,141.66666666667) scale(1.3733333333333)"><rect width="6" height="6"/></g>
<g transform="translate(93.666666666667,141.66666666667) scale(1.3733333333333)"><rect width="6" height="6"/></g>
<g transform="translate(101.66666666667,141.66666666667) scale(1.3733333333333)"><rect width="6" height="6"/></g>
<g transform="translate(109.66666666667,141.66666666667) scale(1.3733333333333)"><rect width="6" height="6"/></g>
<g transform="translate(117.66666666667,141.66666666667) scale(1.3733333333333)"><rect width="6" height="6"/></g>
<g transform="translate(133.66666666667,141.66666666667) scale(1.3733333333333)"><rect width="6" height="6"/></g>
<g transform="translate(157.66666666667,141.66666666667) scale(1.3733333333333)"><rect width="6" height="6"/></g>
<g transform="translate(181.66666666667,141.66666666667) scale(1.3733333333333)"><rect width="6" height="6"/></g>
<g transform="translate(213.66666666667,141.66666666667) scale(1.3733333333333)"><rect width="6" height="6"/></g>
<g transform="translate(237.66666666667,141.66666666667) scale(1.3733333333333)"><rect width="6" height="6"/></g>
<g transform="translate(245.66666666667,141.66666666667) scale(1.3733333333333)"><rect width="6" height="6"/></g>
<g transform="translate(261.66666666667,141.66666666667) scale(1.3733333333333)"><rect width="6" height="6"/></g>
<g transform="translate(269.66666666667,141.66666666667) scale(1.3733333333333)"><rect width="6" height="6"/></g>
<g transform="translate(301.66666666667,141.66666666667) scale(1.3733333333333)"><rect width="6" height="6"/></g>
<g transform="translate(333.66666666667,141.66666666667) scale(1.3733333333333)"><rect width="6" height="6"/></g>
<g transform="translate(341.66666666667,141.66666666667) scale(1.3733333333333)"><rect width="6" height="6"/></g>
<g transform="translate(349.66666666667,141.66666666667) scale(1.3733333333333)"><rect width="6" height="6"/></g>
<g transform="translate(69.666666666667,149.66666666667) scale(1.3733333333333)"><rect width="6" height="6"/></g>
<g transform="translate(93.666666666667,149.66666666667) scale(1.3733333333333)"><rect width="6" height="6"/></g>
<g transform="translate(101.66666666667,149.66666666667) scale(1.3733333333333)"><rect width="6" height="6"/></g>
<g transform="translate(117.66666666667,149.66666666667) scale(1.3733333333333)"><rect width="6" height="6"/></g>
<g transform="translate(133.66666666667,149.66666666667) scale(1.3733333333333)"><rect width="6" height="6"/></g>
<g transform="translate(141.66666666667,149.66666666667) scale(1.3733333333333)"><rect width="6" height="6"/></g>
<g transform="translate(149.66666666667,149.66666666667) scale(1.3733333333333)"><rect width="6" height="6"/></g>
<g transform="translate(157.66666666667,149.66666666667) scale(1.3733333333333)"><rect width="6" height="6"/></g>
<g transform="translate(173.66666666667,149.66666666667) scale(1.3733333333333)"><rect width="6" height="6"/></g>
<g transform="translate(189.66666666667,149.66666666667) scale(1.3733333333333)"><rect width="6" height="6"/></g>
<g transform="translate(205.66666666667,149.66666666667) scale(1.3733333333333)"><rect width="6" height="6"/></g>
<g transform="translate(213.66666666667,149.66666666667) scale(1.3733333333333)"><rect width="6" height="6"/></g>
<g transform="translate(245.66666666667,149.66666666667) scale(1.3733333333333)"><rect width="6" height="6"/></g>
<g transform="translate(269.66666666667,149.66666666667) scale(1.3733333333333)"><rect width="6" height="6"/></g>
<g transform="translate(285.66666666667,149.66666666667) scale(1.3733333333333)"><rect width="6" height="6"/></g>
<g transform="translate(301.66666666667,149.66666666667) scale(1.3733333333333)"><rect width="6" height="6"/></g>
<g transform="translate(317.66666666667,149.66666666667) scale(1.3733333333333)"><rect width="6" height="6"/></g>
<g transform="translate(349.66666666667,149.66666666667) scale(1.3733333333333)"><rect width="6" height="6"/></g>
<g transform="translate(61.666666666667,157.66666666667) scale(1.3733333333333)"><rect width="6" height="6"/></g>
<g transform="translate(77.666666666667,157.66666666667) scale(1.3733333333333)"><rect width="6" height="6"/></g>
<g transform="translate(85.666666666667,157.66666666667) scale(1.3733333333333)"><rect width="6" height="6"/></g>
<g transform="translate(109.66666666667,157.66666666667) scale(1.3733333333333)"><rect width="6" height="6"/></g>
<g transform="translate(133.66666666667,157.66666666667) scale(1.3733333333333)"><rect width="6" height="6"/></g>
<g transform="translate(149.66666666667,157.66666666667) scale(1.3733333333333)"><rect width="6" height="6"/></g>
<g transform="translate(181.66666666667,157.66666666667) scale(1.3733333333333)"><rect width="6" height="6"/></g>
<g transform="translate(197.66666666667,157.66666666667) scale(1.3733333333333)"><rect width="6" height="6"/></g>
<g transform="translate(205.66666666667,157.66666666667) scale(1.3733333333333)"><rect width="6" height="6"/></g>
<g transform="translate(261.66666666667,157.66666666667) scale(1.3733333333333)"><rect width="6" height="6"/></g>
<g transform="translate(269.66666666667,157.66666666667) scale(1.3733333333333)"><rect width="6" height="6"/></g>
<g transform="translate(293.66666666667,157.66666666667) scale(1.3733333333333)"><rect width="6" height="6"/></g>
<g transform="translate(301.66666666667,157.66666666667) scale(1.3733333333333)"><rect width="6" height="6"/></g>
<g transform="translate(309.66666666667,157.66666666667) scale(1.3733333333333)"><rect width="6" height="6"/></g>
<g transform="translate(341.66666666667,157.66666666667) scale(1.3733333333333)"><rect width="6" height="6"/></g>
<g transform="translate(349.66666666667,157.66666666667) scale(1.3733333333333)"><rect width="6" height="6"/></g>
<g transform="translate(69.666666666667,165.66666666667) scale(1.3733333333333)"><rect width="6" height="6"/></g>
<g transform="translate(77.666666666667,165.66666666667) scale(1.3733333333333)"><rect width="6" height="6"/></g>
<g transform="translate(85.666666666667,165.66666666667) scale(1.3733333333333)"><rect width="6" height="6"/></g>
<g transform="translate(93.666666666667,165.66666666667) scale(1.3733333333333)"><rect width="6" height="6"/></g>
<g transform="translate(117.66666666667,165.66666666667) scale(1.3733333333333)"><rect width="6" height="6"/></g>
<g transform="translate(141.66666666667,165.66666666667) scale(1.3733333333333)"><rect width="6" height="6"/></g>
<g transform="translate(157.66666666667,165.66666666667) scale(1.3733333333333)"><rect width="6" height="6"/></g>
<g transform="translate(165.66666666667,165.66666666667) scale(1.3733333333333)"><rect width="6" height="6"/></g>
<g transform="translate(173.66666666667,165.66666666667) scale(1.3733333333333)"><rect width="6" height="6"/></g>
<g transform="translate(181.66666666667,165.66666666667) scale(1.3733333333333)"><rect width="6" height="6"/></g>
<g transform="translate(213.66666666667,165.66666666667) scale(1.3733333333333)"><rect width="6" height="6"/></g>
<g transform="translate(221.66666666667,165.66666666667) scale(1.3733333333333)"><rect width="6" height="6"/></g>
<g transform="translate(237.66666666667,165.66666666667) scale(1.3733333333333)"><rect width="6" height="6"/></g>
<g transform="translate(245.66666666667,165.66666666667) scale(1.3733333333333)"><rect width="6" height="6"/></g>
<g transform="translate(277.66666666667,165.66666666667) scale(1.3733333333333)"><rect width="6" height="6"/></g>
<g transform="translate(285.66666666667,165.66666666667) scale(1.3733333333333)"><rect width="6" height="6"/></g>
<g transform="translate(293.66666666667,165.66666666667) scale(1.3733333333333)"><rect width="6" height="6"/></g>
<g transform="translate(309.66666666667,165.66666666667) scale(1.3733333333333)"><rect width="6" height="6"/></g>
<g transform="translate(325.66666666667,165.66666666667) scale(1.3733333333333)"><rect width="6" height="6"/></g>
<g transform="translate(333.66666666667,165.66666666667) scale(1.3733333333333)"><rect width="6" height="6"/></g>
<g transform="translate(61.666666666667,173.66666666667) scale(1.3733333333333)"><rect width="6" height="6"/></g>
<g transform="translate(77.666666666667,173.66666666667) scale(1.3733333333333)"><rect width="6" height="6"/></g>
<g transform="translate(85.666666666667,173.66666666667) scale(1.3733333333333)"><rect width="6" height="6"/></g>
<g transform="translate(93.666666666667,173.66666666667) scale(1.3733333333333)"><rect width="6" height="6"/></g>
<g transform="translate(101.66666666667,173.66666666667) scale(1.3733333333333)"><rect width="6" height="6"/></g>
<g transform="translate(109.66666666667,173.66666666667) scale(1.3733333333333)"><rect width="6" height="6"/></g>
<g transform="translate(125.66666666667,173.66666666667) scale(1.3733333333333)"><rect width="6" height="6"/></g>
<g transform="translate(133.66666666667,173.66666666667) scale(1.3733333333333)"><rect width="6" height="6"/></g>
<g transform="translate(141.66666666667,173.66666666667) scale(1.3733333333333)"><rect width="6" height="6"/></g>
<g transform="translate(181.66666666667,173.66666666667) scale(1.3733333333333)"><rect width="6" height="6"/></g>
<g transform="translate(189.66666666667,173.66666666667) scale(1.3733333333333)"><rect width="6" height="6"/></g>
<g transform="translate(205.66666666667,173.66666666667) scale(1.3733333333333)"><rect width="6" height="6"/></g>
<g transform="translate(237.66666666667,173.66666666667) scale(1.3733333333333)"><rect width="6" height="6"/></g>
<g transform="translate(245.66666666667,173.66666666667) scale(1.3733333333333)"><rect width="6" height="6"/></g>
<g transform="translate(253.66666666667,173.66666666667) scale(1.3733333333333)"><rect width="6" height="6"/></g>
<g transform="translate(261.66666666667,173.66666666667) scale(1.3733333333333)"><rect width="6" height="6"/></g>
<g transform="translate(277.66666666667,173.66666666667) scale(1.3733333333333)"><rect width="6" height="6"/></g>
<g transform="translate(285.66666666667,173.66666666667) scale(1.3733333333333)"><rect width="6" height="6"/></g>
<g transform="translate(293.66666666667,173.66666666667) scale(1.3733333333333)"><rect width="6" height="6"/></g>
<g transform="translate(309.66666666667,173.66666666667) scale(1.3733333333333)"><rect width="6" height="6"/></g>
<g transform="translate(325.66666666667,173.66666666667) scale(1.3733333333333)"><rect width="6" height="6"/></g>
<g transform="translate(349.66666666667,173.66666666667) scale(1.3733333333333)"><rect width="6" height="6"/></g>
<g transform="translate(61.666666666667,181.66666666667) scale(1.3733333333333)"><rect width="6" height="6"/></g>
<g transform="translate(69.666666666667,181.66666666667) scale(1.3733333333333)"><rect width="6" height="6"/></g>
<g transform="translate(101.66666666667,181.66666666667) scale(1.3733333333333)"><rect width="6" height="6"/></g>
<g transform="translate(117.66666666667,181.66666666667) scale(1.3733333333333)"><rect width="6" height="6"/></g>
<g transform="translate(141.66666666667,181.66666666667) scale(1.3733333333333)"><rect width="6" height="6"/></g>
<g transform="translate(173.66666666667,181.66666666667) scale(1.3733333333333)"><rect width="6" height="6"/></g>
<g transform="translate(205.66666666667,181.66666666667) scale(1.3733333333333)"><rect width="6" height="6"/></g>
<g transform="translate(213.66666666667,181.66666666667) scale(1.3733333333333)"><rect width="6" height="6"/></g>
<g transform="translate(229.66666666667,181.66666666667) scale(1.3733333333333)"><rect width="6" height="6"/></g>
<g transform="translate(253.66666666667,181.66666666667) scale(1.3733333333333)"><rect width="6" height="6"/></g>
<g transform="translate(269.66666666667,181.66666666667) scale(1.3733333333333)"><rect width="6" height="6"/></g>
<g transform="translate(277.66666666667,181.66666666667) scale(1.3733333333333)"><rect width="6" height="6"/></g>
<g transform="translate(293.66666666667,181.66666666667) scale(1.3733333333333)"><rect width="6" height="6"/></g>
<g transform="translate(341.66666666667,181.66666666667) scale(1.3733333333333)"><rect width="6" height="6"/></g>
<g transform="translate(61.666666666667,189.66666666667) scale(1.3733333333333)"><rect width="6" height="6"/></g>
<g transform="translate(101.66666666667,189.66666666667) scale(1.3733333333333)"><rect width="6" height="6"/></g>
<g transform="translate(109.66666666667,189.66666666667) scale(1.3733333333333)"><rect width="6" height="6"/></g>
<g transform="translate(149.66666666667,189.66666666667) scale(1.3733333333333)"><rect width="6" height="6"/></g>
<g transform="translate(157.66666666667,189.66666666667) scale(1.3733333333333)"><rect width="6" height="6"/></g>
<g transform="translate(165.66666666667,189.66666666667) scale(1.3733333333333)"><rect width="6" height="6"/></g>
<g transform="translate(181.66666666667,189.66666666667) scale(1.3733333333333)"><rect width="6" height="6"/></g>
<g transform="translate(189.66666666667,189.66666666667) scale(1.3733333333333)"><rect width="6" height="6"/></g>
<g transform="translate(197.66666666667,189.66666666667) scale(1.3733333333333)"><rect width="6" height="6"/></g>
<g transform="translate(205.66666666667,189.66666666667) scale(1.3733333333333)"><rect width="6" height="6"/></g>
<g transform="translate(213.66666666667,189.66666666667) scale(1.3733333333333)"><rect width="6" height="6"/></g>
<g transform="translate(221.66666666667,189.66666666667) scale(1.3733333333333)"><rect width="6" height="6"/></g>
<g transform="translate(229.66666666667,189.66666666667) scale(1.3733333333333)"><rect width="6" height="6"/></g>
<g transform="translate(237.66666666667,189.66666666667) scale(1.3733333333333)"><rect width="6" height="6"/></g>
<g transform="translate(253.66666666667,189.66666666667) scale(1.3733333333333)"><rect width="6" height="6"/></g>
<g transform="translate(261.66666666667,189.66666666667) scale(1.3733333333333)"><rect width="6" height="6"/></g>
<g transform="translate(285.66666666667,189.66666666667) scale(1.3733333333333)"><rect width="6" height="6"/></g>
<g transform="translate(293.66666666667,189.66666666667) scale(1.3733333333333)"><rect width="6" height="6"/></g>
<g transform="translate(301.66666666667,189.66666666667) scale(1.3733333333333)"><rect width="6" height="6"/></g>
<g transform="translate(317.66666666667,189.66666666667) scale(1.3733333333333)"><rect width="6" height="6"/></g>
<g transform="translate(333.66666666667,189.66666666667) scale(1.3733333333333)"><rect width="6" height="6"/></g>
<g transform="translate(341.66666666667,189.66666666667) scale(1.3733333333333)"><rect width="6" height="6"/></g>
<g transform="translate(61.666666666667,197.66666666667) scale(1.3733333333333)"><rect width="6" height="6"/></g>
<g transform="translate(69.666666666667,197.66666666667) scale(1.3733333333333)"><rect width="6" height="6"/></g>
<g transform="translate(77.666666666667,197.66666666667) scale(1.3733333333333)"><rect width="6" height="6"/></g>
<g transform="translate(117.66666666667,197.66666666667) scale(1.3733333333333)"><rect width="6" height="6"/></g>
<g transform="translate(125.66666666667,197.66666666667) scale(1.3733333333333)"><rect width="6" height="6"/></g>
<g transform="translate(133.66666666667,197.66666666667) scale(1.3733333333333)"><rect width="6" height="6"/></g>
<g transform="translate(141.66666666667,197.66666666667) scale(1.3733333333333)"><rect width="6" height="6"/></g>
<g transform="translate(149.66666666667,197.66666666667) scale(1.3733333333333)"><rect width="6" height="6"/></g>
<g transform="translate(165.66666666667,197.66666666667) scale(1.3733333333333)"><rect width="6" height="6"/></g>
<g transform="translate(181.66666666667,197.66666666667) scale(1.3733333333333)"><rect width="6" height="6"/></g>
<g transform="translate(197.66666666667,197.66666666667) scale(1.3733333333333)"><rect width="6" height="6"/></g>
<g transform="translate(205.66666666667,197.66666666667) scale(1.3733333333333)"><rect width="6" height="6"/></g>
<g transform="translate(245.66666666667,197.66666666667) scale(1.3733333333333)"><rect width="6" height="6"/></g>
<g transform="translate(253.66666666667,197.66666666667) scale(1.3733333333333)"><rect width="6" height="6"/></g>
<g transform="translate(285.66666666667,197.66666666667) scale(1.3733333333333)"><rect width="6" height="6"/></g>
<g transform="translate(333.66666666667,197.66666666667) scale(1.3733333333333)"><rect width="6" height="6"/></g>
<g transform="translate(85.666666666667,205.66666666667) scale(1.3733333333333)"><rect width="6" height="6"/></g>
<g transform="translate(109.66666666667,205.66666666667) scale(1.3733333333333)"><rect width="6" height="6"/></g>
<g transform="translate(117.66666666667,205.66666666667) scale(1.3733333333333)"><rect width="6" height="6"/></g>
<g transform="translate(125.66666666667,205.66666666667) scale(1.3733333333333)"><rect width="6" height="6"/></g>
<g transform="translate(133.66666666667,205.66666666667) scale(1.3733333333333)"><rect width="6" height="6"/></g>
<g transform="translate(149.66666666667,205.66666666667) scale(1.3733333333333)"><rect width="6" height="6"/></g>
<g transform="translate(181.66666666667,205.66666666667) scale(1.3733333333333)"><rect width="6" height="6"/></g>
<g transform="translate(189.66666666667,205.66666666667) scale(1.3733333333333)"><rect width="6" height="6"/></g>
<g transform="translate(197.66666666667,205.66666666667) scale(1.3733333333333)"><rect width="6" height="6"/></g>
<g transform="translate(229.66666666667,205.66666666667) scale(1.3733333333333)"><rect width="6" height="6"/></g>
<g transform="translate(245.66666666667,205.66666666667) scale(1.3733333333333)"><rect width="6" height="6"/></g>
<g transform="translate(269.66666666667,205.66666666667) scale(1.3733333333333)"><rect width="6" height="6"/></g>
<g transform="translate(277.66666666667,205.66666666667) scale(1.3733333333333)"><rect width="6" height="6"/></g>
<g transform="translate(285.66666666667,205.66666666667) scale(1.3733333333333)"><rect width="6" height="6"/></g>
<g transform="translate(301.66666666667,205.66666666667) scale(1.3733333333333)"><rect width="6" height="6"/></g>
<g transform="translate(325.66666666667,205.66666666667) scale(1.3733333333333)"><rect width="6" height="6"/></g>
<g transform="translate(333.66666666667,205.66666666667) scale(1.3733333333333)"><rect width="6" height="6"/></g>
<g transform="translate(341.66666666667,205.66666666667) scale(1.3733333333333)"><rect width="6" height="6"/></g>
<g transform="translate(349.66666666667,205.66666666667) scale(1.3733333333333)"><rect width="6" height="6"/></g>
<g transform="translate(61.666666666667,213.66666666667) scale(1.3733333333333)"><rect width="6" height="6"/></g>
<g transform="translate(69.666666666667,213.66666666667) scale(1.3733333333333)"><rect width="6" height="6"/></g>
<g transform="translate(93.666666666667,213.66666666667) scale(1.3733333333333)"><rect width="6" height="6"/></g>
<g transform="translate(117.66666666667,213.66666666667) scale(1.3733333333333)"><rect width="6" height="6"/></g>
<g transform="translate(141.66666666667,213.66666666667) scale(1.3733333333333)"><rect width="6" height="6"/></g>
<g transform="translate(157.66666666667,213.66666666667) scale(1.3733333333333)"><rect width="6" height="6"/></g>
<g transform="translate(173.66666666667,213.66666666667) scale(1.3733333333333)"><rect width="6" height="6"/></g>
<g transform="translate(189.66666666667,213.66666666667) scale(1.3733333333333)"><rect width="6" height="6"/></g>
<g transform="translate(197.66666666667,213.66666666667) scale(1.3733333333333)"><rect width="6" height="6"/></g>
<g transform="translate(213.66666666667,213.66666666667) scale(1.3733333333333)"><rect width="6" height="6"/></g>
<g transform="translate(245.66666666667,213.66666666667) scale(1.3733333333333)"><rect width="6" height="6"/></g>
<g transform="translate(277.66666666667,213.66666666667) scale(1.3733333333333)"><rect width="6" height="6"/></g>
<g transform="translate(301.66666666667,213.66666666667) scale(1.3733333333333)"><rect width="6" height="6"/></g>
<g transform="translate(309.66666666667,213.66666666667) scale(1.3733333333333)"><rect width="6" height="6"/></g>
<g transform="translate(317.66666666667,213.66666666667) scale(1.3733333333333)"><rect width="6" height="6"/></g>
<g transform="translate(341.66666666667,213.66666666667) scale(1.3733333333333)"><rect width="6" height="6"/></g>
<g transform="translate(349.66666666667,213.66666666667) scale(1.3733333333333)"><rect width="6" height="6"/></g>
<g transform="translate(77.666666666667,221.66666666667) scale(1.3733333333333)"><rect width="6" height="6"/></g>
<g transform="translate(85.666666666667,221.66666666667) scale(1.3733333333333)"><rect width="6" height="6"/></g>
<g transform="translate(93.666666666667,221.66666666667) scale(1.3733333333333)"><rect width="6" height="6"/></g>
<g transform="translate(109.66666666667,221.66666666667) scale(1.3733333333333)"><rect width="6" height="6"/></g>
<g transform="translate(125.66666666667,221.66666666667) scale(1.3733333333333)"><rect width="6" height="6"/></g>
<g transform="translate(133.66666666667,221.66666666667) scale(1.3733333333333)"><rect width="6" height="6"/></g>
<g transform="translate(149.66666666667,221.66666666667) scale(1.3733333333333)"><rect width="6" height="6"/></g>
<g transform="translate(213.66666666667,221.66666666667) scale(1.3733333333333)"><rect width="6" height="6"/></g>
<g transform="translate(229.66666666667,221.66666666667) scale(1.3733333333333)"><rect width="6" height="6"/></g>
<g transform="translate(245.66666666667,221.66666666667) scale(1.3733333333333)"><rect width="6" height="6"/></g>
<g transform="translate(253.66666666667,221.66666666667) scale(1.3733333333333)"><rect width="6" height="6"/></g>
<g transform="translate(269.66666666667,221.66666666667) scale(1.3733333333333)"><rect width="6" height="6"/></g>
<g transform="translate(277.66666666667,221.66666666667) scale(1.3733333333333)"><rect width="6" height="6"/></g>
<g transform="translate(293.66666666667,221.66666666667) scale(1.3733333333333)"><rect width="6" height="6"/></g>
<g transform="translate(301.66666666667,221.66666666667) scale(1.3733333333333)"><rect width="6" height="6"/></g>
<g transform="translate(309.66666666667,221.66666666667) scale(1.3733333333333)"><rect width="6" height="6"/></g>
<g transform="translate(317.66666666667,221.66666666667) scale(1.3733333333333)"><rect width="6" height="6"/></g>
<g transform="translate(325.66666666667,221.66666666667) scale(1.3733333333333)"><rect width="6" height="6"/></g>
<g transform="translate(333.66666666667,221.66666666667) scale(1.3733333333333)"><rect width="6" height="6"/></g>
<g transform="translate(341.66666666667,221.66666666667) scale(1.3733333333333)"><rect width="6" height="6"/></g>
<g transform="translate(349.66666666667,221.66666666667) scale(1.3733333333333)"><rect width="6" height="6"/></g>
<g transform="translate(77.666666666667,229.66666666667) scale(1.3733333333333)"><rect width="6" height="6"/></g>
<g transform="translate(93.666666666667,229.66666666667) scale(1.3733333333333)"><rect width="6" height="6"/></g>
<g transform="translate(117.66666666667,229.66666666667) scale(1.3733333333333)"><rect width="6" height="6"/></g>
<g transform="translate(125.66666666667,229.66666666667) scale(1.3733333333333)"><rect width="6" height="6"/></g>
<g transform="translate(133.66666666667,229.66666666667) scale(1.3733333333333)"><rect width="6" height="6"/></g>
<g transform="translate(181.66666666667,229.66666666667) scale(1.3733333333333)"><rect width="6" height="6"/></g>
<g transform="translate(189.66666666667,229.66666666667) scale(1.3733333333333)"><rect width="6" height="6"/></g>
<g transform="translate(205.66666666667,229.66666666667) scale(1.3733333333333)"><rect width="6" height="6"/></g>
<g transform="translate(237.66666666667,229.66666666667) scale(1.3733333333333)"><rect width="6" height="6"/></g>
<g transform="translate(253.66666666667,229.66666666667) scale(1.3733333333333)"><rect width="6" height="6"/></g>
<g transform="translate(261.66666666667,229.66666666667) scale(1.3733333333333)"><rect width="6" height="6"/></g>
<g transform="translate(293.66666666667,229.66666666667) scale(1.3733333333333)"><rect width="6" height="6"/></g>
<g transform="translate(309.66666666667,229.66666666667) scale(1.3733333333333)"><rect width="6" height="6"/></g>
<g transform="translate(341.66666666667,229.66666666667) scale(1.3733333333333)"><rect width="6" height="6"/></g>
<g transform="translate(61.666666666667,237.66666666667) scale(1.3733333333333)"><rect width="6" height="6"/></g>
<g transform="translate(69.666666666667,237.66666666667) scale(1.3733333333333)"><rect width="6" height="6"/></g>
<g transform="translate(109.66666666667,237.66666666667) scale(1.3733333333333)"><rect width="6" height="6"/></g>
<g transform="translate(117.66666666667,237.66666666667) scale(1.3733333333333)"><rect width="6" height="6"/></g>
<g transform="translate(125.66666666667,237.66666666667) scale(1.3733333333333)"><rect width="6" height="6"/></g>
<g transform="translate(157.66666666667,237.66666666667) scale(1.3733333333333)"><rect width="6" height="6"/></g>
<g transform="translate(165.66666666667,237.66666666667) scale(1.3733333333333)"><rect width="6" height="6"/></g>
<g transform="translate(197.66666666667,237.66666666667) scale(1.3733333333333)"><rect width="6" height="6"/></g>
<g transform="translate(245.66666666667,237.66666666667) scale(1.3733333333333)"><rect width="6" height="6"/></g>
<g transform="translate(253.66666666667,237.66666666667) scale(1.3733333333333)"><rect width="6" height="6"/></g>
<g transform="translate(261.66666666667,237.66666666667) scale(1.3733333333333)"><rect width="6" height="6"/></g>
<g transform="translate(269.66666666667,237.66666666667) scale(1.3733333333333)"><rect width="6" height="6"/></g>
<g transform="translate(277.66666666667,237.66666666667) scale(1.3733333333333)"><rect width="6" height="6"/></g>
<g transform="translate(293.66666666667,237.66666666667) scale(1.3733333333333)"><rect width="6" height="6"/></g>
<g transform="translate(333.66666666667,237.66666666667) scale(1.3733333333333)"><rect width="6" height="6"/></g>
<g transform="translate(341.66666666667,237.66666666667) scale(1.3733333333333)"><rect width="6" height="6"/></g>
<g transform="translate(349.66666666667,237.66666666667) scale(1.3733333333333)"><rect width="6" height="6"/></g>
<g transform="translate(61.666666666667,245.66666666667) scale(1.3733333333333)"><rect width="6" height="6"/></g>
<g transform="translate(77.666666666667,245.66666666667) scale(1.3733333333333)"><rect width="6" height="6"/></g>
<g transform="translate(133.66666666667,245.66666666667) scale(1.3733333333333)"><rect width="6" height="6"/></g>
<g transform="translate(141.66666666667,245.66666666667) scale(1.3733333333333)"><rect width="6" height="6"/></g>
<g transform="translate(149.66666666667,245.66666666667) scale(1.3733333333333)"><rect width="6" height="6"/></g>
<g transform="translate(157.66666666667,245.66666666667) scale(1.3733333333333)"><rect width="6" height="6"/></g>
<g transform="translate(165.66666666667,245.66666666667) scale(1.3733333333333)"><rect width="6" height="6"/></g>
<g transform="translate(173.66666666667,245.66666666667) scale(1.3733333333333)"><rect width="6" height="6"/></g>
<g transform="translate(181.66666666667,245.66666666667) scale(1.3733333333333)"><rect width="6" height="6"/></g>
<g transform="translate(189.66666666667,245.66666666667) scale(1.3733333333333)"><rect width="6" height="6"/></g>
<g transform="translate(205.66666666667,245.66666666667) scale(1.3733333333333)"><rect width="6" height="6"/></g>
<g transform="translate(213.66666666667,245.66666666667) scale(1.3733333333333)"><rect width="6" height="6"/></g>
<g transform="translate(229.66666666667,245.66666666667) scale(1.3733333333333)"><rect width="6" height="6"/></g>
<g transform="translate(245.66666666667,245.66666666667) scale(1.3733333333333)"><rect width="6" height="6"/></g>
<g transform="translate(261.66666666667,245.66666666667) scale(1.3733333333333)"><rect width="6" height="6"/></g>
<g transform="translate(309.66666666667,245.66666666667) scale(1.3733333333333)"><rect width="6" height="6"/></g>
<g transform="translate(349.66666666667,245.66666666667) scale(1.3733333333333)"><rect width="6" height="6"/></g>
<g transform="translate(61.666666666667,253.66666666667) scale(1.3733333333333)"><rect width="6" height="6"/></g>
<g transform="translate(69.666666666667,253.66666666667) scale(1.3733333333333)"><rect width="6" height="6"/></g>
<g transform="translate(77.666666666667,253.66666666667) scale(1.3733333333333)"><rect width="6" height="6"/></g>
<g transform="translate(85.666666666667,253.66666666667) scale(1.3733333333333)"><rect width="6" height="6"/></g>
<g transform="translate(93.666666666667,253.66666666667) scale(1.3733333333333)"><rect width="6" height="6"/></g>
<g transform="translate(109.66666666667,253.66666666667) scale(1.3733333333333)"><rect width="6" height="6"/></g>
<g transform="translate(125.66666666667,253.66666666667) scale(1.3733333333333)"><rect width="6" height="6"/></g>
<g transform="translate(133.66666666667,253.66666666667) scale(1.3733333333333)"><rect width="6" height="6"/></g>
<g transform="translate(141.66666666667,253.66666666667) scale(1.3733333333333)"><rect width="6" height="6"/></g>
<g transform="translate(149.66666666667,253.66666666667) scale(1.3733333333333)"><rect width="6" height="6"/></g>
<g transform="translate(157.66666666667,253.66666666667) scale(1.3733333333333)"><rect width="6" height="6"/></g>
<g transform="translate(173.66666666667,253.66666666667) scale(1.3733333333333)"><rect width="6" height="6"/></g>
<g transform="translate(181.66666666667,253.66666666667) scale(1.3733333333333)"><rect width="6" height="6"/></g>
<g transform="translate(205.66666666667,253.66666666667) scale(1.3733333333333)"><rect width="6" height="6"/></g>
<g transform="translate(229.66666666667,253.66666666667) scale(1.3733333333333)"><rect width="6" height="6"/></g>
<g transform="translate(245.66666666667,253.66666666667) scale(1.3733333333333)"><rect width="6" height="6"/></g>
<g transform="translate(253.66666666667,253.66666666667) scale(1.3733333333333)"><rect width="6" height="6"/></g>
<g transform="translate(269.66666666667,253.66666666667) scale(1.3733333333333)"><rect width="6" height="6"/></g>
<g transform="translate(285.66666666667,253.66666666667) scale(1.3733333333333)"><rect width="6" height="6"/></g>
<g transform="translate(293.66666666667,253.66666666667) scale(1.3733333333333)"><rect width="6" height="6"/></g>
<g transform="translate(309.66666666667,253.66666666667) scale(1.3733333333333)"><rect width="6" height="6"/></g>
<g transform="translate(317.66666666667,253.66666666667) scale(1.3733333333333)"><rect width="6" height="6"/></g>
<g transform="translate(333.66666666667,253.66666666667) scale(1.3733333333333)"><rect width="6" height="6"/></g>
<g transform="translate(341.66666666667,253.66666666667) scale(1.3733333333333)"><rect width="6" height="6"/></g>
<g transform="translate(349.66666666667,253.66666666667) scale(1.3733333333333)"><rect width="6" height="6"/></g>
<g transform="translate(61.666666666667,261.66666666667) scale(1.3733333333333)"><rect width="6" height="6"/></g>
<g transform="translate(69.666666666667,261.66666666667) scale(1.3733333333333)"><rect width="6" height="6"/></g>
<g transform="translate(101.66666666667,261.66666666667) scale(1.3733333333333)"><rect width="6" height="6"/></g>
<g transform="translate(117.66666666667,261.66666666667) scale(1.3733333333333)"><rect width="6" height="6"/></g>
<g transform="translate(149.66666666667,261.66666666667) scale(1.3733333333333)"><rect width="6" height="6"/></g>
<g transform="translate(157.66666666667,261.66666666667) scale(1.3733333333333)"><rect width="6" height="6"/></g>
<g transform="translate(165.66666666667,261.66666666667) scale(1.3733333333333)"><rect width="6" height="6"/></g>
<g transform="translate(181.66666666667,261.66666666667) scale(1.3733333333333)"><rect width="6" height="6"/></g>
<g transform="translate(189.66666666667,261.66666666667) scale(1.3733333333333)"><rect width="6" height="6"/></g>
<g transform="translate(197.66666666667,261.66666666667) scale(1.3733333333333)"><rect width="6" height="6"/></g>
<g transform="translate(205.66666666667,261.66666666667) scale(1.3733333333333)"><rect width="6" height="6"/></g>
<g transform="translate(213.66666666667,261.66666666667) scale(1.3733333333333)"><rect width="6" height="6"/></g>
<g transform="translate(221.66666666667,261.66666666667) scale(1.3733333333333)"><rect width="6" height="6"/></g>
<g transform="translate(229.66666666667,261.66666666667) scale(1.3733333333333)"><rect width="6" height="6"/></g>
<g transform="translate(277.66666666667,261.66666666667) scale(1.3733333333333)"><rect width="6" height="6"/></g>
<g transform="translate(301.66666666667,261.66666666667) scale(1.3733333333333)"><rect width="6" height="6"/></g>
<g transform="translate(325.66666666667,261.66666666667) scale(1.3733333333333)"><rect width="6" height="6"/></g>
<g transform="translate(333.66666666667,261.66666666667) scale(1.3733333333333)"><rect width="6" height="6"/></g>
<g transform="translate(341.66666666667,261.66666666667) scale(1.3733333333333)"><rect width="6" height="6"/></g>
<g transform="translate(61.666666666667,269.66666666667) scale(1.3733333333333)"><rect width="6" height="6"/></g>
<g transform="translate(85.666666666667,269.66666666667) scale(1.3733333333333)"><rect width="6" height="6"/></g>
<g transform="translate(109.66666666667,269.66666666667) scale(1.3733333333333)"><rect width="6" height="6"/></g>
<g transform="translate(117.66666666667,269.66666666667) scale(1.3733333333333)"><rect width="6" height="6"/></g>
<g transform="translate(133.66666666667,269.66666666667) scale(1.3733333333333)"><rect width="6" height="6"/></g>
<g transform="translate(181.66666666667,269.66666666667) scale(1.3733333333333)"><rect width="6" height="6"/></g>
<g transform="translate(189.66666666667,269.66666666667) scale(1.3733333333333)"><rect width="6" height="6"/></g>
<g transform="translate(221.66666666667,269.66666666667) scale(1.3733333333333)"><rect width="6" height="6"/></g>
<g transform="translate(229.66666666667,269.66666666667) scale(1.3733333333333)"><rect width="6" height="6"/></g>
<g transform="translate(237.66666666667,269.66666666667) scale(1.3733333333333)"><rect width="6" height="6"/></g>
<g transform="translate(245.66666666667,269.66666666667) scale(1.3733333333333)"><rect width="6" height="6"/></g>
<g transform="translate(253.66666666667,269.66666666667) scale(1.3733333333333)"><rect width="6" height="6"/></g>
<g transform="translate(261.66666666667,269.66666666667) scale(1.3733333333333)"><rect width="6" height="6"/></g>
<g transform="translate(269.66666666667,269.66666666667) scale(1.3733333333333)"><rect width="6" height="6"/></g>
<g transform="translate(277.66666666667,269.66666666667) scale(1.3733333333333)"><rect width="6" height="6"/></g>
<g transform="translate(285.66666666667,269.66666666667) scale(1.3733333333333)"><rect width="6" height="6"/></g>
<g transform="translate(301.66666666667,269.66666666667) scale(1.3733333333333)"><rect width="6" height="6"/></g>
<g transform="translate(309.66666666667,269.66666666667) scale(1.3733333333333)"><rect width="6" height="6"/></g>
<g transform="translate(325.66666666667,269.66666666667) scale(1.3733333333333)"><rect width="6" height="6"/></g>
<g transform="translate(341.66666666667,269.66666666667) scale(1.3733333333333)"><rect width="6" height="6"/></g>
<g transform="translate(349.66666666667,269.66666666667) scale(1.3733333333333)"><rect width="6" height="6"/></g>
<g transform="translate(61.666666666667,277.66666666667) scale(1.3733333333333)"><rect width="6" height="6"/></g>
<g transform="translate(77.666666666667,277.66666666667) scale(1.3733333333333)"><rect width="6" height="6"/></g>
<g transform="translate(85.666666666667,277.66666666667) scale(1.3733333333333)"><rect width="6" height="6"/></g>
<g transform="translate(93.666666666667,277.66666666667) scale(1.3733333333333)"><rect width="6" height="6"/></g>
<g transform="translate(101.66666666667,277.66666666667) scale(1.3733333333333)"><rect width="6" height="6"/></g>
<g transform="translate(125.66666666667,277.66666666667) scale(1.3733333333333)"><rect width="6" height="6"/></g>
<g transform="translate(141.66666666667,277.66666666667) scale(1.3733333333333)"><rect width="6" height="6"/></g>
<g transform="translate(165.66666666667,277.66666666667) scale(1.3733333333333)"><rect width="6" height="6"/></g>
<g transform="translate(173.66666666667,277.66666666667) scale(1.3733333333333)"><rect width="6" height="6"/></g>
<g transform="translate(189.66666666667,277.66666666667) scale(1.3733333333333)"><rect width="6" height="6"/></g>
<g transform="translate(197.66666666667,277.66666666667) scale(1.3733333333333)"><rect width="6" height="6"/></g>
<g transform="translate(205.66666666667,277.66666666667) scale(1.3733333333333)"><rect width="6" height="6"/></g>
<g transform="translate(213.66666666667,277.66666666667) scale(1.3733333333333)"><rect width="6" height="6"/></g>
<g transform="translate(221.66666666667,277.66666666667) scale(1.3733333333333)"><rect width="6" height="6"/></g>
<g transform="translate(245.66666666667,277.66666666667) scale(1.3733333333333)"><rect width="6" height="6"/></g>
<g transform="translate(269.66666666667,277.66666666667) scale(1.3733333333333)"><rect width="6" height="6"/></g>
<g transform="translate(277.66666666667,277.66666666667) scale(1.3733333333333)"><rect width="6" height="6"/></g>
<g transform="translate(293.66666666667,277.66666666667) scale(1.3733333333333)"><rect width="6" height="6"/></g>
<g transform="translate(61.666666666667,285.66666666667) scale(1.3733333333333)"><rect width="6" height="6"/></g>
<g transform="translate(85.666666666667,285.66666666667) scale(1.3733333333333)"><rect width="6" height="6"/></g>
<g transform="translate(93.666666666667,285.66666666667) scale(1.3733333333333)"><rect width="6" height="6"/></g>
<g transform="translate(109.66666666667,285.66666666667) scale(1.3733333333333)"><rect width="6" height="6"/></g>
<g transform="translate(117.66666666667,285.66666666667) scale(1.3733333333333)"><rect width="6" height="6"/></g>
<g transform="translate(133.66666666667,285.66666666667) scale(1.3733333333333)"><rect width="6" height="6"/></g>
<g transform="translate(141.66666666667,285.66666666667) scale(1.3733333333333)"><rect width="6" height="6"/></g>
<g transform="translate(149.66666666667,285.66666666667) scale(1.3733333333333)"><rect width="6" height="6"/></g>
<g transform="translate(157.66666666667,285.66666666667) scale(1.3733333333333)"><rect width="6" height="6"/></g>
<g transform="translate(173.66666666667,285.66666666667) scale(1.3733333333333)"><rect width="6" height="6"/></g>
<g transform="translate(189.66666666667,285.66666666667) scale(1.3733333333333)"><rect width="6" height="6"/></g>
<g transform="translate(197.66666666667,285.66666666667) scale(1.3733333333333)"><rect width="6" height="6"/></g>
<g transform="translate(205.66666666667,285.66666666667) scale(1.3733333333333)"><rect width="6" height="6"/></g>
<g transform="translate(237.66666666667,285.66666666667) scale(1.3733333333333)"><rect width="6" height="6"/></g>
<g transform="translate(245.66666666667,285.66666666667) scale(1.3733333333333)"><rect width="6" height="6"/></g>
<g transform="translate(261.66666666667,285.66666666667) scale(1.3733333333333)"><rect width="6" height="6"/></g>
<g transform="translate(269.66666666667,285.66666666667) scale(1.3733333333333)"><rect width="6" height="6"/></g>
<g transform="translate(277.66666666667,285.66666666667) scale(1.3733333333333)"><rect width="6" height="6"/></g>
<g transform="translate(285.66666666667,285.66666666667) scale(1.3733333333333)"><rect width="6" height="6"/></g>
<g transform="translate(293.66666666667,285.66666666667) scale(1.3733333333333)"><rect width="6" height="6"/></g>
<g transform="translate(301.66666666667,285.66666666667) scale(1.3733333333333)"><rect width="6" height="6"/></g>
<g transform="translate(309.66666666667,285.66666666667) scale(1.3733333333333)"><rect width="6" height="6"/></g>
<g transform="translate(317.66666666667,285.66666666667) scale(1.3733333333333)"><rect width="6" height="6"/></g>
<g transform="translate(333.66666666667,285.66666666667) scale(1.3733333333333)"><rect width="6" height="6"/></g>
<g transform="translate(349.66666666667,285.66666666667) scale(1.3733333333333)"><rect width="6" height="6"/></g>
<g transform="translate(125.66666666667,293.66666666667) scale(1.3733333333333)"><rect width="6" height="6"/></g>
<g transform="translate(133.66666666667,293.66666666667) scale(1.3733333333333)"><rect width="6" height="6"/></g>
<g transform="translate(149.66666666667,293.66666666667) scale(1.3733333333333)"><rect width="6" height="6"/></g>
<g transform="translate(157.66666666667,293.66666666667) scale(1.3733333333333)"><rect width="6" height="6"/></g>
<g transform="translate(181.66666666667,293.66666666667) scale(1.3733333333333)"><rect width="6" height="6"/></g>
<g transform="translate(189.66666666667,293.66666666667) scale(1.3733333333333)"><rect width="6" height="6"/></g>
<g transform="translate(197.66666666667,293.66666666667) scale(1.3733333333333)"><rect width="6" height="6"/></g>
<g transform="translate(205.66666666667,293.66666666667) scale(1.3733333333333)"><rect width="6" height="6"/></g>
<g transform="translate(221.66666666667,293.66666666667) scale(1.3733333333333)"><rect width="6" height="6"/></g>
<g transform="translate(237.66666666667,293.66666666667) scale(1.3733333333333)"><rect width="6" height="6"/></g>
<g transform="translate(261.66666666667,293.66666666667) scale(1.3733333333333)"><rect width="6" height="6"/></g>
<g transform="translate(277.66666666667,293.66666666667) scale(1.3733333333333)"><rect width="6" height="6"/></g>
<g transform="translate(285.66666666667,293.66666666667) scale(1.3733333333333)"><rect width="6" height="6"/></g>
<g transform="translate(317.66666666667,293.66666666667) scale(1.3733333333333)"><rect width="6" height="6"/></g>
<g transform="translate(141.66666666667,301.66666666667) scale(1.3733333333333)"><rect width="6" height="6"/></g>
<g transform="translate(149.66666666667,301.66666666667) scale(1.3733333333333)"><rect width="6" height="6"/></g>
<g transform="translate(173.66666666667,301.66666666667) scale(1.3733333333333)"><rect width="6" height="6"/></g>
<g transform="translate(189.66666666667,301.66666666667) scale(1.3733333333333)"><rect width="6" height="6"/></g>
<g transform="translate(197.66666666667,301.66666666667) scale(1.3733333333333)"><rect width="6" height="6"/></g>
<g transform="translate(205.66666666667,301.66666666667) scale(1.3733333333333)"><rect width="6" height="6"/></g>
<g transform="translate(221.66666666667,301.66666666667) scale(1.3733333333333)"><rect width="6" height="6"/></g>
<g transform="translate(253.66666666667,301.66666666667) scale(1.3733333333333)"><rect width="6" height="6"/></g>
<g transform="translate(261.66666666667,301.66666666667) scale(1.3733333333333)"><rect width="6" height="6"/></g>
<g transform="translate(269.66666666667,301.66666666667) scale(1.3733333333333)"><rect width="6" height="6"/></g>
<g transform="translate(285.66666666667,301.66666666667) scale(1.3733333333333)"><rect width="6" height="6"/></g>
<g transform="translate(301.66666666667,301.66666666667) scale(1.3733333333333)"><rect width="6" height="6"/></g>
<g transform="translate(317.66666666667,301.66666666667) scale(1.3733333333333)"><rect width="6" height="6"/></g>
<g transform="translate(325.66666666667,301.66666666667) scale(1.3733333333333)"><rect width="6" height="6"/></g>
<g transform="translate(341.66666666667,301.66666666667) scale(1.3733333333333)"><rect width="6" height="6"/></g>
<g transform="translate(349.66666666667,301.66666666667) scale(1.3733333333333)"><rect width="6" height="6"/></g>
<g transform="translate(141.66666666667,309.66666666667) scale(1.3733333333333)"><rect width="6" height="6"/></g>
<g transform="translate(149.66666666667,309.66666666667) scale(1.3733333333333)"><rect width="6" height="6"/></g>
<g transform="translate(157.66666666667,309.66666666667) scale(1.3733333333333)"><rect width="6" height="6"/></g>
<g transform="translate(189.66666666667,309.66666666667) scale(1.3733333333333)"><rect width="6" height="6"/></g>
<g transform="translate(197.66666666667,309.66666666667) scale(1.3733333333333)"><rect width="6" height="6"/></g>
<g transform="translate(237.66666666667,309.66666666667) scale(1.3733333333333)"><rect width="6" height="6"/></g>
<g transform="translate(253.66666666667,309.66666666667) scale(1.3733333333333)"><rect width="6" height="6"/></g>
<g transform="translate(269.66666666667,309.66666666667) scale(1.3733333333333)"><rect width="6" height="6"/></g>
<g transform="translate(285.66666666667,309.66666666667) scale(1.3733333333333)"><rect width="6" height="6"/></g>
<g transform="translate(317.66666666667,309.66666666667) scale(1.3733333333333)"><rect width="6" height="6"/></g>
<g transform="translate(341.66666666667,309.66666666667) scale(1.3733333333333)"><rect width="6" height="6"/></g>
<g transform="translate(125.66666666667,317.66666666667) scale(1.3733333333333)"><rect width="6" height="6"/></g>
<g transform="translate(149.66666666667,317.66666666667) scale(1.3733333333333)"><rect width="6" height="6"/></g>
<g transform="translate(157.66666666667,317.66666666667) scale(1.3733333333333)"><rect width="6" height="6"/></g>
<g transform="translate(205.66666666667,317.66666666667) scale(1.3733333333333)"><rect width="6" height="6"/></g>
<g transform="translate(213.66666666667,317.66666666667) scale(1.3733333333333)"><rect width="6" height="6"/></g>
<g transform="translate(221.66666666667,317.66666666667) scale(1.3733333333333)"><rect width="6" height="6"/></g>
<g transform="translate(229.66666666667,317.66666666667) scale(1.3733333333333)"><rect width="6" height="6"/></g>
<g transform="translate(237.66666666667,317.66666666667) scale(1.3733333333333)"><rect width="6" height="6"/></g>
<g transform="translate(245.66666666667,317.66666666667) scale(1.3733333333333)"><rect width="6" height="6"/></g>
<g transform="translate(261.66666666667,317.66666666667) scale(1.3733333333333)"><rect width="6" height="6"/></g>
<g transform="translate(269.66666666667,317.66666666667) scale(1.3733333333333)"><rect width="6" height="6"/></g>
<g transform="translate(277.66666666667,317.66666666667) scale(1.3733333333333)"><rect width="6" height="6"/></g>
<g transform="translate(285.66666666667,317.66666666667) scale(1.3733333333333)"><rect width="6" height="6"/></g>
<g transform="translate(293.66666666667,317.66666666667) scale(1.3733333333333)"><rect width="6" height="6"/></g>
<g transform="translate(301.66666666667,317.66666666667) scale(1.3733333333333)"><rect width="6" height="6"/></g>
<g transform="translate(309.66666666667,317.66666666667) scale(1.3733333333333)"><rect width="6" height="6"/></g>
<g transform="translate(317.66666666667,317.66666666667) scale(1.3733333333333)"><rect width="6" height="6"/></g>
<g transform="translate(333.66666666667,317.66666666667) scale(1.3733333333333)"><rect width="6" height="6"/></g>
<g transform="translate(341.66666666667,317.66666666667) scale(1.3733333333333)"><rect width="6" height="6"/></g>
<g transform="translate(125.66666666667,325.66666666667) scale(1.3733333333333)"><rect width="6" height="6"/></g>
<g transform="translate(141.66666666667,325.66666666667) scale(1.3733333333333)"><rect width="6" height="6"/></g>
<g transform="translate(157.66666666667,325.66666666667) scale(1.3733333333333)"><rect width="6" height="6"/></g>
<g transform="translate(165.66666666667,325.66666666667) scale(1.3733333333333)"><rect width="6" height="6"/></g>
<g transform="translate(173.66666666667,325.66666666667) scale(1.3733333333333)"><rect width="6" height="6"/></g>
<g transform="translate(189.66666666667,325.66666666667) scale(1.3733333333333)"><rect width="6" height="6"/></g>
<g transform="translate(197.66666666667,325.66666666667) scale(1.3733333333333)"><rect width="6" height="6"/></g>
<g transform="translate(229.66666666667,325.66666666667) scale(1.3733333333333)"><rect width="6" height="6"/></g>
<g transform="translate(237.66666666667,325.66666666667) scale(1.3733333333333)"><rect width="6" height="6"/></g>
<g transform="translate(253.66666666667,325.66666666667) scale(1.3733333333333)"><rect width="6" height="6"/></g>
<g transform="translate(261.66666666667,325.66666666667) scale(1.3733333333333)"><rect width="6" height="6"/></g>
<g transform="translate(277.66666666667,325.66666666667) scale(1.3733333333333)"><rect width="6" height="6"/></g>
<g transform="translate(285.66666666667,325.66666666667) scale(1.3733333333333)"><rect width="6" height="6"/></g>
<g transform="translate(301.66666666667,325.66666666667) scale(1.3733333333333)"><rect width="6" height="6"/></g>
<g transform="translate(309.66666666667,325.66666666667) scale(1.3733333333333)"><rect width="6" height="6"/></g>
<g transform="translate(317.66666666667,325.66666666667) scale(1.3733333333333)"><rect width="6" height="6"/></g>
<g transform="translate(125.66666666667,333.66666666667) scale(1.3733333333333)"><rect width="6" height="6"/></g>
<g transform="translate(133.66666666667,333.66666666667) scale(1.3733333333333)"><rect width="6" height="6"/></g>
<g transform="translate(149.66666666667,333.66666666667) scale(1.3733333333333)"><rect width="6" height="6"/></g>
<g transform="translate(157.66666666667,333.66666666667) scale(1.3733333333333)"><rect width="6" height="6"/></g>
<g transform="translate(165.66666666667,333.66666666667) scale(1.3733333333333)"><rect width="6" height="6"/></g>
<g transform="translate(181.66666666667,333.66666666667) scale(1.3733333333333)"><rect width="6" height="6"/></g>
<g transform="translate(189.66666666667,333.66666666667) scale(1.3733333333333)"><rect width="6" height="6"/></g>
<g transform="translate(205.66666666667,333.66666666667) scale(1.3733333333333)"><rect width="6" height="6"/></g>
<g transform="translate(213.66666666667,333.66666666667) scale(1.3733333333333)"><rect width="6" height="6"/></g>
<g transform="translate(229.66666666667,333.66666666667) scale(1.3733333333333)"><rect width="6" height="6"/></g>
<g transform="translate(237.66666666667,333.66666666667) scale(1.3733333333333)"><rect width="6" height="6"/></g>
<g transform="translate(261.66666666667,333.66666666667) scale(1.3733333333333)"><rect width="6" height="6"/></g>
<g transform="translate(277.66666666667,333.66666666667) scale(1.3733333333333)"><rect width="6" height="6"/></g>
<g transform="translate(285.66666666667,333.66666666667) scale(1.3733333333333)"><rect width="6" height="6"/></g>
<g transform="translate(293.66666666667,333.66666666667) scale(1.3733333333333)"><rect width="6" height="6"/></g>
<g transform="translate(333.66666666667,333.66666666667) scale(1.3733333333333)"><rect width="6" height="6"/></g>
<g transform="translate(349.66666666667,333.66666666667) scale(1.3733333333333)"><rect width="6" height="6"/></g>
<g transform="translate(133.66666666667,341.66666666667) scale(1.3733333333333)"><rect width="6" height="6"/></g>
<g transform="translate(149.66666666667,341.66666666667) scale(1.3733333333333)"><rect width="6" height="6"/></g>
<g transform="translate(157.66666666667,341.66666666667) scale(1.3733333333333)"><rect width="6" height="6"/></g>
<g transform="translate(181.66666666667,341.66666666667) scale(1.3733333333333)"><rect width="6" height="6"/></g>
<g transform="translate(197.66666666667,341.66666666667) scale(1.3733333333333)"><rect width="6" height="6"/></g>
<g transform="translate(205.66666666667,341.66666666667) scale(1.3733333333333)"><rect width="6" height="6"/></g>
<g transform="translate(237.66666666667,341.66666666667) scale(1.3733333333333)"><rect width="6" height="6"/></g>
<g transform="translate(253.66666666667,341.66666666667) scale(1.3733333333333)"><rect width="6" height="6"/></g>
<g transform="translate(269.66666666667,341.66666666667) scale(1.3733333333333)"><rect width="6" height="6"/></g>
<g transform="translate(277.66666666667,341.66666666667) scale(1.3733333333333)"><rect width="6" height="6"/></g>
<g transform="translate(285.66666666667,341.66666666667) scale(1.3733333333333)"><rect width="6" height="6"/></g>
<g transform="translate(293.66666666667,341.66666666667) scale(1.3733333333333)"><rect width="6" height="6"/></g>
<g transform="translate(309.66666666667,341.66666666667) scale(1.3733333333333)"><rect width="6" height="6"/></g>
<g transform="translate(317.66666666667,341.66666666667) scale(1.3733333333333)"><rect width="6" height="6"/></g>
<g transform="translate(349.66666666667,341.66666666667) scale(1.3733333333333)"><rect width="6" height="6"/></g>
<g transform="translate(133.66666666667,349.66666666667) scale(1.3733333333333)"><rect width="6" height="6"/></g>
<g transform="translate(141.66666666667,349.66666666667) scale(1.3733333333333)"><rect width="6" height="6"/></g>
<g transform="translate(149.66666666667,349.66666666667) scale(1.3733333333333)"><rect width="6" height="6"/></g>
<g transform="translate(157.66666666667,349.66666666667) scale(1.3733333333333)"><rect width="6" height="6"/></g>
<g transform="translate(165.66666666667,349.66666666667) scale(1.3733333333333)"><rect width="6" height="6"/></g>
<g transform="translate(173.66666666667,349.66666666667) scale(1.3733333333333)"><rect width="6" height="6"/></g>
<g transform="translate(181.66666666667,349.66666666667) scale(1.3733333333333)"><rect width="6" height="6"/></g>
<g transform="translate(189.66666666667,349.66666666667) scale(1.3733333333333)"><rect width="6" height="6"/></g>
<g transform="translate(229.66666666667,349.66666666667) scale(1.3733333333333)"><rect width="6" height="6"/></g>
<g transform="translate(237.66666666667,349.66666666667) scale(1.3733333333333)"><rect width="6" height="6"/></g>
<g transform="translate(253.66666666667,349.66666666667) scale(1.3733333333333)"><rect width="6" height="6"/></g>
<g transform="translate(269.66666666667,349.66666666667) scale(1.3733333333333)"><rect width="6" height="6"/></g>
<g transform="translate(293.66666666667,349.66666666667) scale(1.3733333333333)"><rect width="6" height="6"/></g>
<g transform="translate(301.66666666667,349.66666666667) scale(1.3733333333333)"><rect width="6" height="6"/></g>
<g transform="translate(309.66666666667,349.66666666667) scale(1.3733333333333)"><rect width="6" height="6"/></g>
<g transform="translate(325.66666666667,349.66666666667) scale(1.3733333333333)"><rect width="6" height="6"/></g>
<g transform="translate(333.66666666667,349.66666666667) scale(1.3733333333333)"><rect width="6" height="6"/></g>
<g transform="translate(341.66666666667,349.66666666667) scale(1.3733333333333)"><rect width="6" height="6"/></g>
<g transform="translate(349.66666666667,349.66666666667) scale(1.3733333333333)"><rect width="6" height="6"/></g>
<g transform="translate(61.666666666667,61.666666666667)"><g transform="scale(4)"><path d="M0,0v14h14V0H0z M12,12H2V2h10V12z"/></g></g>
<g transform="translate(301.66666666667,61.666666666667)"><g transform="scale(4)"><path d="M0,0v14h14V0H0z M12,12H2V2h10V12z"/></g></g>
<g transform="translate(61.666666666667,301.66666666667)"><g transform="scale(4)"><path d="M0,0v14h14V0H0z M12,12H2V2h10V12z"/></g></g>
<g transform="translate(77.666666666667,77.666666666667)"><g transform="scale(4)"><rect width="6" height="6"/></g></g>
<g transform="translate(317.66666666667,77.666666666667)"><g transform="scale(4)"><rect width="6" height="6"/></g></g>
<g transform="translate(77.666666666667,317.66666666667)"><g transform="scale(4)"><rect width="6" height="6"/></g></g>
</g><g transform="translate(81.886481481481,0) scale(0.58240740740741)"><path fill="#FFFFFF" d="M30.25,112.8q3.15,4.9,11.35,4.9t12.6-5.1t4.4-15.5l0-45.2l-6.5,0l0-1.9l14.6,0l0,1.9l-5.5,0l0,44.5q0,12.4-5.5,18.5t-19.45,6.1t-21.3-5.8t-7.35-19.9l0-43.4l-5.5,0l0-1.9l31.5,0l0,1.9l-6.5,0l0,46.8q0,9.2,3.15,14.1z M70.4,50l29.9,0q13.9,0,20.85,3.75t6.95,12.65q0,13.7-16.5,16.4l0,0.2q20,2.5,20,17.4q0,10.9-8.2,15.25t-23.6,4.35l-29.4,0l0-1.9l6.5,0l0-66.2l-6.5,0l0-1.9z M96.4,84.6l0,33.5l4.7,0q5.5,0,7.7-3.8t2.2-11.2l0-5.3q0-6.6-2.7-9.9t-9.6-3.3l-2.3,0z M96.4,51.9l0,30.8l2.6,0q5.2,0,7.25-3.15t2.05-9.65l0-4.7q0-7.4-1.8-10.35t-6.9-2.95l-3.2,0z M136.7,50l30.5,0l0,1.9l-5.5,0l0,66.2l5.5,0l0,1.9l-30.5,0l0-1.9l5.5,0l0-66.2l-5.5,0l0-1.9z M143.1,45.7l11.5-16.2l4.8,0.4q2.5,0.2,3.65,1.5t1.15,3q0,4-4.4,5.8l-15.9,6.5z M209.7,50.9q-15.5,0-15.5,29.9l0,7.9q0,14.2,4.1,22.25t12.1,8.05q11,0,20.2-21.4l1.8,0l-0.7,22.3l-1.1,0q-0.6-1.1-1.1-1.55t-1.45-0.45t-7.25,1.55t-12.8,1.55q-16.3,0-25.25-8.8t-8.95-26.45t9.35-27.25t25.15-9.6q6.1,0,11.95,1.55t6.85,1.55t1.5-0.45t1.1-1.55l1.1,0l0.8,21.7l-1.8,0q-4.5-10.1-9.25-15.45t-10.85-5.35z M281.9,118.1l-7.3-21.6l-19.8,0l-7.7,21.6l7.5,0l0,1.9l-15.3,0l0-1.9l4.7,0l25.5-68.7l8.2,0l25.2,68.7l4.6,0l0,1.9l-32.7,0l0-1.9l7.1,0z M265.1,68.1l-9.4,26.2l18.1,0z M371.7,50l1,25.1l-1.9,0q-4.4-13.3-7.8-18.15t-9.8-4.85l-1.2,0l0,65.8l8.5,0l0,2.1l-36.5,0l0-2.1l8.5,0l0-65.8l-1.3,0q-6.4,0-9.9,5.05t-7.7,17.95l-1.9,0l1-25.1l59,0z M378.5,50l52,0l1,19.8l-1.8,0q-4.2-10.1-8.8-13.85t-13.5-3.75l-3.5,0l0,30.9l3.4,0q4.7,0,7.9-3.55t4.5-9.55l1.5,0l0,29.6l-1.7,0q-1.8-7.5-4.85-10.7t-8.35-3.2l-2.4,0l0,32.1l3.8,0q9.2,0,15.65-5.5t8.85-14.1l2,0l-0.8,21.8l-54.9,0l0-2.2l5.9,0l0-65.6l-5.9,0l0-2.2z"/></g></svg>
