<?xml version="1.0" standalone="no"?>
<!DOCTYPE svg PUBLIC "-//W3C//DTD SVG 20010904//EN"
 "http://www.w3.org/TR/2001/REC-SVG-20010904/DTD/svg10.dtd">
<svg version="1.0" xmlns="http://www.w3.org/2000/svg"
 width="675.000000pt" height="929.000000pt" viewBox="0 0 675.000000 929.000000"
 preserveAspectRatio="xMidYMid meet">
<metadata>
Created by potrace 1.16, written by Peter Selinger 2001-2019
</metadata>
<g transform="translate(0.000000,929.000000) scale(0.100000,-0.100000)"
fill="#000000" stroke="none">
<path d="M3357 9263 c-4 -3 -7 -21 -7 -39 0 -31 -2 -33 -42 -36 -40 -3 -43 -5
-43 -33 0 -28 3 -30 43 -33 l42 -3 0 -64 c0 -35 -4 -67 -10 -70 -15 -9 -12
-56 5 -75 14 -16 14 -25 -6 -96 -27 -102 -95 -246 -146 -309 -27 -34 -61 -60
-106 -84 -68 -34 -79 -46 -66 -71 4 -8 12 -26 18 -40 6 -14 17 -33 23 -43 11
-15 10 -20 -7 -33 -16 -12 -18 -18 -7 -34 8 -14 12 -80 12 -225 0 -227 6 -207
-65 -217 -16 -3 -21 -12 -23 -50 -3 -46 -5 -49 -75 -99 -67 -48 -149 -117
-222 -186 -60 -55 -153 -169 -215 -263 -177 -265 -289 -622 -303 -967 -3 -72
-2 -73 23 -73 14 0 52 10 85 21 302 104 787 167 1180 155 110 -4 234 -9 275
-12 41 -4 73 -4 70 -1 -3 3 -64 11 -135 17 -226 20 -621 12 -822 -16 l-43 -6
0 164 c0 175 9 275 41 433 53 266 176 542 321 717 33 40 44 46 66 42 15 -2 41
0 57 5 28 10 26 10 -17 8 -27 -1 -48 1 -48 5 0 9 76 12 240 9 l115 -1 38 -43
c132 -146 268 -419 326 -657 42 -173 53 -263 58 -484 5 -189 4 -218 -9 -214
-8 4 -46 9 -84 12 l-69 5 80 -14 c133 -23 119 -47 112 198 -6 218 -26 367 -68
527 -63 232 -172 457 -292 603 -52 63 -41 71 14 12 149 -158 287 -431 350
-688 10 -43 17 -61 18 -44 2 65 -77 303 -151 451 -47 96 -154 262 -184 286
-18 16 -18 30 2 30 8 0 13 -4 10 -9 -7 -11 18 -21 55 -21 32 0 40 -16 12 -23
-10 -2 -7 -3 6 -2 26 3 95 -54 164 -133 22 -26 43 -49 46 -52 15 -11 130 -168
174 -237 170 -266 279 -614 289 -920 l3 -93 29 0 29 0 -6 98 c-25 406 -224
858 -511 1159 -22 24 -37 45 -34 48 3 3 47 -38 98 -92 189 -201 333 -465 406
-743 32 -121 64 -333 64 -420 0 -59 2 -68 20 -73 19 -5 20 0 20 75 0 233 -80
549 -200 788 -120 240 -287 439 -501 598 -85 63 -96 74 -92 96 10 52 -3 73
-52 80 l-45 7 0 213 c0 149 3 215 12 224 9 9 8 17 -2 37 -12 22 -11 28 6 48
26 30 44 64 44 81 0 8 -30 30 -67 49 -48 24 -79 49 -106 83 -53 69 -114 196
-136 286 -10 42 -22 81 -26 88 -4 6 1 20 10 30 13 14 16 28 10 52 -4 18 -8 62
-9 98 -1 51 2 64 13 62 8 -2 27 0 43 3 24 6 29 11 26 33 -3 24 -8 27 -45 30
-43 3 -43 3 -43 43 0 36 -2 39 -28 39 -16 0 -32 -3 -35 -7z m44 -518 c6 -31
22 -89 35 -129 14 -39 28 -79 31 -88 5 -16 -3 -18 -82 -18 -79 0 -86 2 -79 18
25 58 64 185 70 230 3 29 8 51 10 49 2 -2 9 -30 15 -62z m208 -301 c112 -59
128 -70 118 -80 -3 -3 -55 19 -116 50 l-110 56 -117 0 -117 0 -108 -55 c-59
-30 -113 -55 -120 -55 -26 0 16 29 121 84 l105 55 119 1 119 0 106 -56z m-127
-111 c6 -7 8 -20 4 -28 -5 -13 -23 -15 -108 -13 -98 3 -103 4 -106 26 -2 12 1
22 7 22 6 0 11 9 11 20 0 17 8 19 88 22 80 3 87 1 90 -17 2 -11 8 -26 14 -32z
m-12 -293 l0 -240 -95 0 -95 0 0 234 0 235 33 4 c17 2 60 5 95 5 l62 2 0 -240z
m-200 -10 c0 -223 -1 -230 -20 -230 -19 0 -20 7 -20 223 0 123 3 227 7 230 3
4 12 7 20 7 10 0 13 -45 13 -230z m-50 -21 l0 -219 -37 0 -38 0 0 160 c0 146
4 182 18 148 3 -7 6 -1 6 15 1 27 21 39 21 12 0 -8 4 -15 9 -15 4 0 6 11 3 25
-5 29 -29 33 -49 8 -12 -16 -13 -14 -11 21 3 32 9 43 33 56 17 10 33 15 38 13
4 -2 7 -103 7 -224z m360 211 l40 -20 0 -206 0 -205 -42 3 -43 3 -3 223 c-1
122 0 222 3 222 3 0 24 -9 45 -20z m50 -482 c105 -13 151 -30 65 -24 l-60 5
53 -12 c29 -7 52 -16 50 -22 -2 -5 -7 -9 -13 -8 -205 36 -479 39 -687 6 -33
-5 -38 -3 -38 14 0 18 12 22 103 37 56 9 125 18 152 20 75 5 279 -3 375 -16z
m-498 -126 c-147 -188 -248 -404 -310 -662 -44 -185 -54 -264 -61 -480 l-6
-195 -105 -18 c-58 -9 -160 -31 -228 -47 -68 -17 -126 -30 -129 -30 -12 0 7
229 27 327 55 270 147 490 300 718 63 93 211 269 274 325 28 25 62 55 76 68
14 12 36 22 50 22 14 0 36 3 48 7 20 5 13 -8 -40 -81 -107 -144 -206 -352
-256 -536 -29 -106 -54 -237 -50 -258 2 -9 10 19 17 63 8 44 35 145 61 225 72
221 169 402 287 538 58 65 94 77 45 14z m-380 -197 c-289 -309 -474 -718 -512
-1130 -12 -123 -15 -135 -31 -135 -20 0 -3 204 31 368 69 328 216 614 440 853
27 29 130 119 136 119 3 0 -26 -34 -64 -75z"/>
<path d="M3315 8078 c2 -18 3 -74 4 -124 l1 -90 60 0 60 0 0 108 c0 99 -2 109
-17 106 -15 -3 -19 -19 -24 -103 l-5 -100 -4 100 c-2 55 -3 108 -2 118 1 9 -3
17 -8 17 -6 0 -10 -46 -10 -116 0 -74 -4 -113 -10 -109 -6 3 -10 49 -10 101 0
73 -3 94 -12 88 -10 -6 -10 -4 0 7 17 19 15 29 -7 29 -15 0 -18 -6 -16 -32z"/>
<path d="M726 8557 c-16 -12 -18 -22 -12 -61 6 -36 4 -54 -10 -74 -32 -52 -70
-84 -135 -117 -74 -38 -158 -122 -207 -207 -31 -52 -94 -105 -154 -127 -23 -9
-28 -16 -28 -46 l0 -35 -51 0 -50 0 3 -47 c2 -32 7 -47 16 -46 7 2 12 -7 12
-22 0 -14 7 -28 15 -31 8 -4 15 -14 15 -24 0 -10 7 -20 15 -24 13 -4 15 -37
15 -204 0 -165 3 -202 15 -212 11 -9 15 -35 15 -104 0 -108 -13 -146 -50 -146
-58 0 -92 -56 -50 -82 26 -17 25 -26 -2 -30 -19 -2 -24 -10 -26 -42 -3 -30 1
-42 15 -50 16 -9 15 -11 -12 -16 -28 -5 -30 -8 -33 -54 -2 -33 1 -52 11 -59
33 -27 37 -77 37 -474 0 -334 -2 -399 -15 -423 -9 -17 -22 -30 -30 -30 -8 0
-15 -9 -15 -20 0 -11 -7 -20 -15 -20 -8 0 -15 -9 -15 -20 0 -18 5 -20 58 -15
174 14 1272 21 1415 8 58 -5 58 -5 32 -19 -15 -8 -33 -14 -39 -13 -58 7 -1466
-3 -1466 -10 0 -6 289 -8 753 -4 674 4 749 3 725 -10 -24 -13 -126 -16 -738
-18 -390 -1 -713 1 -717 4 -3 4 -10 7 -16 7 -5 0 -8 -250 -6 -631 l4 -631 325
6 c179 4 642 7 1030 9 l705 2 3 -22 3 -23 -1037 0 c-571 0 -1035 -2 -1032 -5
3 -3 463 -5 1021 -5 559 0 1034 -3 1057 -6 30 -5 40 -11 40 -25 0 -19 -27 -19
-1060 -17 l-1060 3 0 -42 c0 -23 4 -43 9 -45 4 -1 11 -475 15 -1053 3 -577 9
-1518 12 -2090 5 -739 10 -1042 18 -1047 14 -10 1115 -10 1609 -1 358 6 367 7
367 26 0 20 -4 20 -969 13 -533 -4 -971 -3 -974 1 -2 4 -6 438 -8 963 l-4 955
380 6 c528 9 538 13 45 19 l-425 5 -3 98 -3 97 268 1 c147 1 351 5 453 8 180
7 177 7 -125 9 -419 3 -595 11 -595 29 0 10 39 13 198 14 108 1 226 5 262 9
42 4 -27 7 -197 8 -226 2 -263 4 -263 17 0 12 16 15 83 16 45 1 147 5 227 9
l145 6 -227 2 c-195 2 -228 4 -228 17 0 13 37 15 268 16 147 1 299 5 337 9 42
4 -63 7 -267 8 l-338 2 0 30 0 30 288 1 c277 0 482 6 491 15 2 2 -100 4 -227
4 l-232 0 0 130 0 130 -80 0 -80 0 0 110 0 110 80 0 80 0 0 145 0 145 -85 0
-85 0 0 109 0 110 53 6 c28 4 57 6 62 5 44 -9 45 -7 45 140 l0 140 -85 0 -85
0 0 110 0 110 85 0 85 0 0 125 0 125 500 0 500 0 0 -120 0 -119 -107 -3 -108
-3 -3 -42 c-3 -42 -2 -43 27 -43 28 0 31 -3 31 -30 0 -27 3 -30 30 -30 24 0
30 -4 30 -22 0 -13 12 -34 25 -47 23 -21 24 -25 10 -41 -27 -30 -19 -70 25
-110 l40 -37 -1 -782 c-1 -429 -4 -781 -8 -782 -3 -1 -19 -2 -36 -4 -16 -1
-33 -3 -37 -4 -4 0 -8 -16 -10 -34 -3 -29 -6 -32 -40 -35 -35 -3 -38 -6 -38
-33 0 -27 -2 -29 -40 -29 -38 0 -40 -2 -40 -30 0 -28 -2 -30 -39 -30 -36 0
-40 -3 -43 -27 -3 -25 -7 -28 -45 -31 -42 -3 -43 -4 -43 -38 0 -33 -1 -34 -40
-34 -39 0 -40 -1 -40 -35 0 -34 -1 -35 -39 -35 -37 0 -40 -2 -43 -33 -3 -30
-5 -32 -40 -30 -36 2 -38 0 -38 -27 0 -29 -1 -30 -49 -30 -47 0 -50 -2 -53
-27 -3 -26 -7 -28 -50 -31 -45 -3 -47 -5 -50 -35 -3 -29 -6 -32 -38 -32 -34 0
-35 -1 -38 -43 l-3 -42 233 2 233 2 -218 6 c-119 3 -217 8 -217 13 0 4 0 14 0
22 0 13 40 15 293 17 l292 2 -250 6 -250 5 0 25 0 24 190 -3 c105 -1 188 -1
185 2 -3 3 -64 7 -136 9 -137 5 -157 9 -147 33 4 11 22 15 67 15 55 1 59 2 42
15 -11 8 -16 21 -13 30 5 13 33 15 174 17 92 1 143 3 113 5 -170 9 -200 14
-200 34 0 13 7 19 23 20 12 1 87 5 167 9 l145 6 -127 2 -128 2 0 24 c0 26 4
27 215 39 28 2 8 4 -42 5 -92 2 -93 2 -93 27 0 25 0 25 108 27 79 1 89 3 40 5
-63 4 -68 5 -68 27 0 21 6 24 53 30 28 3 77 7 107 7 30 1 42 4 25 6 -74 9 -95
15 -95 28 0 10 23 15 88 20 123 9 137 12 60 14 -60 1 -68 3 -68 20 0 20 26 25
175 34 37 3 31 4 -23 5 l-73 2 3 27 c2 16 9 29 16 29 6 1 56 3 110 5 l97 3
-70 5 -70 6 -3 798 c-1 529 1 797 8 797 7 0 10 -194 10 -570 0 -373 3 -570 10
-570 7 0 10 197 10 570 0 500 2 570 15 570 13 0 15 -71 15 -575 0 -316 3 -575
8 -575 4 0 6 259 4 575 -2 506 -1 575 13 575 13 0 15 -71 15 -577 0 -318 3
-579 7 -580 5 -2 7 258 5 577 -2 518 -1 580 13 580 14 0 15 -62 13 -580 l-3
-579 23 -6 c27 -7 28 -15 2 -43 -17 -18 -18 -22 -5 -22 23 0 18 -18 -7 -22
-18 -3 -15 -6 15 -12 52 -11 49 -36 -5 -37 -25 -1 -32 -3 -18 -6 79 -12 90
-15 90 -27 0 -15 -40 -25 -104 -27 -34 -1 -30 -3 26 -11 l67 -10 3 -114 3
-114 1092 -3 1092 -2 3 115 3 115 143 3 142 3 0 -115 0 -115 -87 -3 c-49 -2
179 -5 505 -6 l592 -2 1 85 c1 47 3 90 4 95 1 6 3 21 4 35 1 23 5 25 52 25 31
0 48 4 44 10 -3 6 -31 10 -61 10 -41 0 -54 4 -54 15 0 17 23 24 100 28 l55 3
-62 2 c-48 2 -63 6 -63 17 0 13 9 16 90 28 14 3 7 5 -17 6 -50 1 -59 21 -10
22 31 0 31 1 8 10 -58 23 -57 69 3 69 l31 0 -3 580 c-2 515 -1 580 13 580 14
0 15 -65 13 -580 -2 -459 0 -580 10 -580 9 0 12 123 12 580 0 377 3 580 10
580 6 0 11 -204 13 -577 l2 -578 3 578 c2 505 4 577 17 577 13 0 15 -96 15
-800 l0 -800 -57 0 c-91 0 -56 -9 44 -11 100 -2 117 -7 111 -35 -2 -14 -15
-21 -43 -25 -27 -4 -10 -7 53 -8 83 -1 93 -3 90 -18 -2 -11 -16 -20 -33 -24
-23 -4 -13 -8 43 -14 59 -6 72 -11 72 -25 0 -14 -14 -20 -67 -27 l-68 -10 113
-2 112 -1 0 -25 c0 -24 -3 -25 -62 -27 -46 -1 -35 -3 42 -7 96 -6 105 -8 105
-26 0 -18 -9 -21 -95 -26 l-95 -5 75 -2 c41 -1 106 -5 143 -9 62 -5 68 -8 65
-27 -3 -19 -12 -22 -78 -27 -69 -5 -65 -6 43 -7 l117 -2 0 -25 c0 -25 -1 -25
-97 -27 l-98 -1 115 -7 c63 -4 127 -8 143 -9 22 -1 27 -6 27 -26 0 -24 -1 -24
-102 -28 -88 -2 -81 -3 45 -5 l147 -2 0 -25 c0 -25 -2 -25 -82 -26 -46 -1
-117 -5 -158 -9 -56 -5 -24 -7 128 -8 l203 -2 -3 -23 c-3 -22 -3 -22 -243 -27
l-240 -5 285 -5 285 -5 3 -22 c3 -22 3 -23 -170 -26 l-173 -3 185 1 185 0 3
38 3 37 -45 0 c-39 0 -46 3 -47 20 -1 11 -2 26 -3 33 0 7 -19 13 -43 15 -40 3
-43 5 -43 32 0 27 -3 29 -42 32 -40 3 -43 5 -46 36 -3 31 -5 32 -48 32 -42 0
-44 1 -44 29 0 28 -3 30 -42 33 -40 3 -43 5 -46 35 -3 32 -5 33 -48 33 -42 0
-44 1 -44 29 0 28 -3 30 -42 33 -40 3 -43 5 -46 36 -3 30 -6 32 -43 32 -37 0
-39 2 -39 30 0 29 -2 30 -45 30 -43 0 -45 1 -45 30 0 29 -2 30 -45 30 -43 0
-45 1 -45 30 0 29 -1 30 -50 30 l-50 0 0 795 c0 717 2 795 16 795 21 0 74 54
74 77 0 10 -6 30 -14 44 -8 16 -10 32 -5 40 5 8 9 28 9 46 0 28 3 32 33 35 28
3 32 6 29 31 -3 24 0 27 27 27 30 0 31 1 31 45 l0 45 -105 0 -105 0 0 119 0
119 163 7 c89 3 308 5 487 3 l325 -3 3 -127 3 -128 89 0 90 0 0 -115 0 -115
-90 0 -91 0 3 -142 3 -143 88 -3 87 -3 0 -109 0 -109 -87 -3 -88 -3 -3 -142
-3 -143 91 0 90 0 0 -114 0 -114 -31 -6 c-17 -3 -60 -6 -95 -6 l-63 0 -3 -132
-3 -133 -115 -6 c-77 -3 -20 -6 173 -7 l287 -2 0 -44 0 -45 -272 -1 c-150 0
-274 -3 -277 -5 -2 -3 120 -5 272 -5 238 0 277 -2 277 -15 0 -13 -46 -15 -327
-18 l-328 -2 328 -3 c320 -2 327 -2 327 -22 0 -19 -7 -20 -222 -21 -123 -1
-322 -5 -443 -8 l-220 -7 255 -2 c140 -1 339 -5 443 -9 l187 -6 0 -99 0 -98
-92 0 c-139 0 -783 -12 -786 -15 -1 -1 194 -6 435 -10 241 -4 439 -8 441 -10
1 -1 0 -433 -4 -959 l-7 -956 -491 0 c-270 0 -704 -3 -963 -7 -452 -6 -473 -7
-473 -25 0 -18 32 -18 978 -18 537 1 982 4 987 8 7 5 11 420 14 1192 6 1637
17 2995 25 3057 l7 52 -33 -10 c-20 -5 -449 -9 -1060 -9 -1009 0 -1028 0
-1028 19 0 16 9 21 53 26 28 3 505 5 1060 3 666 -2 1007 0 1007 7 0 7 -350 9
-1035 7 l-1035 -2 0 21 0 21 1035 -7 1035 -8 0 27 c0 14 -5 26 -12 26 -8 0 -9
106 -3 423 5 232 9 512 9 622 l2 200 -754 1 c-748 1 -850 6 -715 33 70 13
1351 5 1397 -10 53 -17 76 -12 76 16 0 20 -5 25 -25 25 -16 0 -25 6 -25 16 0
9 -9 18 -20 21 -11 3 -20 14 -20 24 0 10 -4 20 -10 24 -6 3 -9 156 -9 396 0
322 3 397 16 434 8 25 19 45 24 45 5 0 9 25 9 55 0 52 -1 55 -25 55 -29 0 -32
8 -9 24 23 17 9 86 -17 86 -23 0 -25 13 -4 30 8 7 15 23 15 36 0 25 -18 37
-70 48 -40 8 -51 48 -43 155 3 50 10 94 15 97 4 3 8 76 8 162 0 189 7 262 26
262 8 0 14 9 14 20 0 11 5 20 10 20 6 0 10 11 10 25 0 16 6 25 15 25 11 0 15
12 15 44 l0 45 -47 3 c-48 3 -48 3 -51 41 -2 21 -9 37 -15 37 -7 0 -38 16 -69
35 -44 28 -69 55 -112 120 -65 96 -124 152 -199 188 -95 45 -163 138 -137 187
25 47 -30 92 -66 55 -15 -14 -16 -22 -6 -47 22 -59 -36 -137 -136 -185 -70
-34 -159 -120 -202 -196 -35 -63 -85 -107 -148 -132 -36 -15 -41 -21 -44 -53
-3 -36 -4 -37 -50 -40 l-48 -3 0 -45 c0 -32 4 -44 15 -44 9 0 15 -9 15 -24 0
-13 7 -26 15 -30 8 -3 12 -12 9 -19 -3 -9 3 -16 15 -20 20 -5 21 -12 21 -210
0 -170 3 -207 15 -217 11 -9 15 -35 15 -107 0 -112 -14 -143 -64 -143 -18 0
-37 -5 -44 -12 -19 -19 -14 -56 8 -68 28 -15 25 -30 -5 -30 -20 0 -25 -5 -25
-24 0 -13 -3 -32 -6 -41 -5 -11 0 -18 15 -22 27 -7 17 -23 -15 -23 -22 0 -24
-3 -24 -54 0 -31 5 -56 11 -58 6 -2 17 -21 24 -42 17 -50 22 -771 5 -781 -8
-5 -8 -10 0 -20 13 -16 -17 -85 -37 -85 -7 0 -13 -7 -13 -15 0 -10 -10 -15
-32 -15 -67 0 -78 -8 -78 -56 0 -31 4 -44 14 -44 7 0 16 -9 19 -20 3 -11 12
-20 21 -20 13 0 16 -14 16 -89 0 -85 -1 -90 -22 -93 -13 -2 -23 -10 -23 -18
-1 -30 17 -85 32 -97 12 -9 16 -51 20 -227 4 -134 2 -216 -4 -216 -5 0 -45 27
-89 61 -43 33 -136 104 -206 157 l-128 97 0 282 0 283 -101 0 -102 0 5 150 5
149 -37 15 c-33 13 -154 45 -345 91 -77 19 -271 50 -455 72 -224 27 -700 24
-919 -6 -254 -34 -446 -76 -629 -137 -40 -13 -77 -24 -83 -24 -29 0 -34 -26
-28 -140 4 -63 4 -127 2 -142 l-5 -28 -94 0 -94 0 0 -273 0 -273 -27 -26 c-16
-14 -75 -60 -133 -104 -58 -43 -130 -98 -160 -121 -99 -78 -105 -82 -112 -75
-3 4 -4 103 -1 220 5 169 9 212 19 212 8 0 14 9 14 20 0 11 5 20 10 20 6 0 10
18 10 39 0 33 -4 40 -22 43 -22 3 -23 8 -24 87 -1 73 2 84 18 89 10 2 18 13
18 23 0 11 7 19 15 19 11 0 15 12 15 45 l0 45 -51 0 c-42 0 -52 3 -56 20 -3
11 -11 20 -17 20 -18 0 -47 65 -34 78 7 7 6 16 -1 30 -7 13 -9 132 -5 368 6
396 8 428 34 452 14 13 18 29 16 62 -2 40 -5 45 -29 48 -29 4 -38 22 -11 22
12 0 14 9 12 43 -2 35 -7 43 -25 45 -27 4 -29 14 -8 32 37 31 7 80 -49 80 -15
0 -30 8 -36 19 -13 26 -13 231 0 231 6 0 10 39 10 98 0 181 12 322 27 322 7 0
13 9 13 20 0 11 5 20 10 20 6 0 10 14 10 30 0 19 5 30 14 30 15 0 27 34 22 65
-2 17 -12 21 -54 23 -52 3 -52 3 -52 37 0 31 -5 37 -42 56 -74 37 -95 57 -153
145 -60 89 -129 153 -202 186 -77 34 -155 133 -132 169 15 24 10 58 -10 69
-25 13 -24 13 -45 -3z m5367 -289 c45 -50 71 -97 86 -155 18 -65 42 -117 49
-106 4 6 21 13 37 16 27 4 27 4 -7 6 -30 1 -39 5 -43 24 -3 12 -11 54 -19 92
-9 39 -18 81 -22 95 -7 24 -7 24 34 -8 53 -42 87 -83 124 -149 16 -29 43 -64
59 -77 16 -14 29 -27 29 -30 0 -3 -37 -5 -82 -5 -46 0 -162 0 -258 0 -96 -1
-257 2 -358 5 l-184 6 35 29 c19 16 49 54 67 85 37 67 99 135 146 163 40 24
40 23 14 -29 -11 -21 -25 -72 -30 -112 -11 -73 -19 -87 -55 -89 -16 -1 -16 -2
5 -8 35 -11 44 0 70 82 26 84 57 141 97 179 34 32 53 37 118 32 44 -3 54 -8
88 -46z m-5263 22 c41 -29 87 -105 110 -179 20 -66 49 -126 50 -104 0 6 15 14
33 16 32 4 32 4 -5 5 -34 2 -38 5 -47 40 -5 20 -12 57 -15 82 -4 25 -13 58
-21 74 -22 42 -18 50 13 31 49 -32 83 -69 138 -152 30 -46 66 -90 79 -99 14
-9 25 -19 25 -23 0 -3 -42 -6 -92 -6 l-93 0 3 -37 c2 -24 -1 -38 -8 -38 -6 0
-10 6 -9 13 1 6 1 23 0 36 l-1 24 -184 -8 c-102 -4 -255 -4 -342 1 l-158 7 29
24 c15 14 46 52 68 86 43 69 134 167 154 167 15 0 17 -12 5 -25 -11 -13 -32
-86 -32 -111 0 -11 -5 -36 -11 -56 -9 -36 -12 -38 -52 -40 -40 -1 -41 -1 -7
-5 19 -3 38 -9 41 -15 8 -13 49 72 49 100 0 50 96 194 137 205 48 12 116 6
143 -13z m463 -426 c71 -6 75 -8 52 -20 -33 -17 -1172 -22 -1201 -6 -11 6 -17
12 -14 13 3 1 214 5 470 9 256 3 499 7 541 8 42 1 110 -1 152 -4z m5236 -10
c58 -5 70 -9 56 -17 -13 -7 -211 -8 -599 -4 -548 5 -687 12 -576 29 53 7 1010
0 1119 -8z m-490 -38 c293 -3 536 -8 539 -11 22 -22 -64 -25 -583 -24 -524 2
-605 6 -605 29 0 14 11 16 62 14 29 -2 293 -5 587 -8z m-4699 -6 c0 -5 -8 -13
-17 -18 -10 -5 -270 -12 -578 -15 -456 -5 -563 -4 -577 7 -10 7 -18 16 -18 19
0 4 165 8 368 10 202 1 469 3 595 5 141 1 227 -2 227 -8z m4318 -105 c2 -2
-13 -21 -33 -42 -20 -21 -47 -58 -60 -83 -20 -38 -24 -42 -30 -25 -15 46 -50
116 -62 127 -33 27 -14 35 85 30 53 -2 98 -5 100 -7z m-4948 -4 c0 -4 -11 -18
-25 -31 -14 -13 -42 -50 -63 -82 -20 -32 -39 -58 -42 -58 -3 0 -14 18 -24 40
-11 22 -35 59 -54 81 -28 32 -32 43 -22 49 17 10 230 11 230 1z m310 3 c0 -4
-16 -25 -36 -47 -20 -22 -45 -60 -56 -84 l-20 -45 -43 63 c-23 35 -52 73 -64
83 -11 11 -21 23 -21 28 0 4 54 8 120 8 66 0 120 -3 120 -6z m246 -16 c-22
-31 -66 -122 -66 -136 0 -23 -17 -12 -32 22 -9 18 -29 49 -45 67 -63 75 -68
69 52 69 l107 0 -16 -22z m4694 19 c0 -2 -22 -27 -49 -56 -27 -30 -55 -67 -62
-82 -6 -16 -14 -29 -18 -29 -3 0 -17 20 -30 45 -13 24 -40 62 -61 85 l-37 40
129 0 c70 0 128 -1 128 -3z m310 -2 c0 -2 -14 -20 -31 -39 -16 -19 -43 -58
-59 -87 l-28 -51 -34 53 c-19 30 -49 69 -66 88 -18 18 -32 35 -32 37 0 2 56 4
125 4 69 0 125 -2 125 -5z m250 -4 c0 -5 -16 -33 -35 -62 -19 -29 -37 -65 -40
-81 -8 -34 -21 -36 -29 -4 -3 13 -26 51 -51 85 -25 33 -45 63 -45 66 0 3 45 5
100 5 55 0 100 -4 100 -9z m-6110 -7 c0 -3 -11 -19 -24 -35 -14 -16 -37 -52
-52 -79 -15 -28 -30 -50 -34 -50 -3 0 -12 17 -19 38 -8 20 -27 56 -42 80 -16
24 -29 45 -29 48 0 2 45 4 100 4 55 0 100 -3 100 -6z m396 -75 c22 -25 53 -71
69 -102 28 -53 45 -71 45 -47 0 21 61 137 91 173 l32 38 33 -32 c31 -30 77
-111 105 -184 11 -30 11 -29 38 50 32 92 48 125 61 125 13 0 12 -6 -4 -60 -8
-25 -25 -63 -40 -84 -14 -21 -28 -53 -32 -72 -7 -39 -20 -37 -29 5 -3 16 -21
46 -39 67 -18 22 -38 53 -45 71 -21 52 -39 62 -62 33 -10 -14 -19 -32 -19 -41
0 -8 -12 -26 -26 -40 -34 -31 -62 -87 -70 -138 -7 -42 -24 -47 -24 -8 -1 32
-34 100 -63 129 -15 15 -29 37 -32 50 -3 12 -13 32 -21 43 -19 25 -45 11 -59
-32 -5 -16 -27 -49 -47 -72 -25 -29 -41 -61 -49 -97 -7 -30 -15 -54 -19 -54
-4 0 -13 19 -20 43 -18 61 -47 115 -70 129 -11 7 -20 19 -20 26 0 7 -7 26 -15
42 -22 42 -51 39 -72 -7 -10 -21 -28 -50 -41 -64 -13 -15 -34 -52 -46 -83
l-23 -57 -11 44 c-6 24 -20 54 -30 68 -24 30 -42 84 -41 118 0 20 7 12 32 -39
18 -36 37 -79 43 -95 l10 -30 28 54 c32 63 108 181 116 181 12 -1 78 -99 106
-159 l31 -66 31 61 c37 74 128 177 147 166 7 -4 30 -28 51 -53z m4925 19 c28
-38 62 -104 83 -162 5 -15 17 -2 57 65 49 81 99 139 118 139 17 0 98 -101 126
-156 15 -30 31 -57 36 -59 4 -3 26 30 49 72 22 43 52 91 67 108 l26 29 25 -29
c14 -17 30 -29 35 -27 4 1 6 -2 3 -7 -3 -4 8 -36 25 -69 23 -46 34 -60 47 -56
13 5 14 4 3 -4 -8 -6 -11 -17 -7 -28 9 -22 20 -10 36 40 21 64 50 126 60 126
6 0 10 -3 10 -7 0 -20 -32 -108 -43 -122 -12 -14 -21 -33 -42 -96 -5 -16 -10
-10 -26 32 -11 29 -33 65 -50 80 -16 15 -29 35 -29 43 0 8 -11 29 -25 45 l-25
30 -20 -24 c-11 -13 -20 -29 -20 -37 0 -7 -13 -29 -30 -47 -35 -40 -69 -112
-70 -144 0 -42 -25 -23 -37 28 -8 30 -27 69 -47 93 -19 23 -41 58 -49 78 -8
19 -21 39 -28 43 -15 10 -49 -29 -49 -55 0 -9 -14 -32 -31 -49 -35 -37 -68
-105 -69 -138 0 -13 -4 -23 -10 -23 -5 0 -10 13 -10 28 0 36 -46 129 -70 142
-10 5 -21 22 -25 37 -9 40 -31 67 -50 59 -8 -3 -24 -25 -34 -48 -10 -24 -26
-50 -35 -57 -21 -18 -56 -84 -56 -106 0 -9 -4 -13 -10 -10 -5 3 -10 15 -10 25
0 17 -36 88 -50 100 -11 9 -32 97 -28 116 5 22 53 -75 70 -143 12 -48 34 -73
26 -30 -3 15 -2 25 2 22 3 -2 21 26 39 62 36 74 80 133 98 133 7 0 27 -19 44
-42z m-4460 -321 c-5 -7 -11 -69 -13 -138 -2 -96 0 -130 11 -142 7 -10 12 -17
10 -18 -61 -12 -63 -7 -69 146 -5 125 -4 134 13 129 11 -3 17 0 17 10 0 9 -4
16 -10 16 -25 0 1 129 33 168 10 12 13 -1 15 -72 2 -49 -1 -93 -7 -99z m4210
156 c34 -59 45 -153 18 -153 -5 0 -9 -10 -9 -22 1 -21 2 -21 11 -5 21 35 27 4
24 -112 -3 -142 -8 -161 -41 -161 -24 0 -32 14 -14 25 6 4 10 58 10 130 0 96
-3 127 -15 139 -11 11 -15 37 -15 100 0 47 4 86 8 86 4 0 15 -12 23 -27z
m-5014 7 c51 -18 106 -149 69 -163 -20 -8 -21 -27 -2 -27 10 0 17 -16 22 -46
7 -51 0 -206 -10 -223 -4 -7 -42 -11 -95 -11 -87 0 -89 0 -99 28 -15 39 -24
182 -13 218 8 29 7 30 -18 26 -22 -3 -27 0 -27 17 0 13 7 21 18 21 12 0 15 -5
11 -17 -5 -13 -2 -15 12 -9 11 4 22 2 26 -6 4 -7 11 -9 15 -6 3 4 -3 19 -15
34 -11 15 -21 35 -21 46 0 28 37 94 62 112 27 19 27 19 65 6z m345 -32 c33
-38 57 -126 38 -138 -7 -4 -9 -13 -6 -19 4 -6 11 -9 16 -6 13 8 20 -35 20
-132 0 -116 -9 -143 -50 -143 -29 0 -30 -2 -30 -45 l0 -45 -60 0 -60 0 0 45
c0 40 -2 45 -23 45 -17 0 -25 9 -35 40 -12 41 -15 183 -3 235 6 27 8 28 17 11
7 -11 14 -15 18 -8 3 6 0 17 -7 24 -9 7 -11 19 -7 28 5 8 16 36 25 62 32 90
92 109 147 46z m283 20 c29 -23 55 -74 55 -108 0 -11 -9 -29 -20 -40 -23 -23
-27 -45 -6 -37 9 4 17 -7 25 -31 15 -48 0 -220 -20 -233 -19 -12 -150 -11
-169 1 -20 12 -32 280 -13 280 6 0 14 -6 16 -12 3 -8 6 -7 6 4 1 9 -3 20 -9
23 -29 18 7 128 52 159 30 21 50 20 83 -6z m4645 -8 c38 -41 54 -107 34 -138
-9 -13 -12 -27 -8 -30 4 -4 9 -2 11 4 2 7 13 10 24 7 15 -4 18 -2 13 11 -4 11
-1 16 10 16 9 0 16 -8 16 -20 0 -14 -7 -20 -22 -20 -22 0 -23 -3 -24 -108 0
-59 -4 -119 -7 -134 -7 -28 -8 -28 -96 -28 l-89 0 -11 31 c-12 34 -15 179 -5
217 4 14 12 21 20 18 21 -8 17 17 -6 42 -11 12 -20 27 -20 34 0 23 47 115 61
121 36 14 72 6 99 -23z m281 20 c10 -6 26 -24 35 -41 23 -45 44 -119 33 -119
-5 0 -9 -7 -9 -15 0 -8 5 -15 10 -15 6 0 10 5 10 10 0 6 4 10 10 10 5 0 7 -7
4 -15 -4 -8 -3 -23 1 -32 12 -30 5 -182 -11 -218 -9 -23 -21 -35 -34 -35 -17
0 -20 -7 -20 -45 l0 -45 -59 0 -60 0 -3 48 c-3 43 -5 47 -30 50 -35 4 -48 42
-48 146 0 96 7 129 26 122 9 -3 14 2 14 13 0 11 -5 21 -11 23 -16 5 20 114 48
144 23 25 61 31 94 14z m318 -7 c12 -10 30 -40 40 -68 l19 -50 -24 -32 c-14
-19 -20 -34 -14 -38 5 -3 10 -1 10 4 0 6 6 11 13 11 20 0 22 -205 3 -252 l-16
-38 -89 0 c-102 0 -95 -8 -107 117 -8 89 2 163 22 163 18 0 18 19 0 26 -24 9
6 116 44 154 25 25 71 26 99 3z m-6095 -35 c23 -53 33 -128 17 -128 -6 0 -11
-7 -11 -15 0 -8 7 -15 15 -15 12 0 15 -19 15 -112 0 -139 -5 -158 -36 -158
-13 0 -24 5 -24 10 0 6 5 10 10 10 17 0 12 251 -5 274 -16 21 -22 176 -7 176
4 0 16 -19 26 -42z m6263 -137 c-16 -40 -18 -243 -3 -273 6 -14 4 -18 -13 -18
-31 0 -41 36 -41 143 0 108 6 138 26 130 19 -7 18 6 -2 28 -14 15 -14 25 -5
71 7 29 19 64 29 78 17 25 17 24 20 -49 2 -47 -2 -87 -11 -110z m73 -417 c31
-5 32 -7 15 -16 -19 -11 -1203 -3 -1214 8 -3 3 1 9 8 13 14 9 1132 4 1191 -5z
m-5228 -7 c-6 -7 -9 -22 -6 -34 5 -19 0 -20 -88 -26 -51 -3 -324 -6 -605 -6
-452 -1 -513 0 -513 14 0 12 16 15 78 17 42 0 82 2 87 3 6 2 236 3 513 4 276
0 502 4 502 9 0 4 -258 6 -572 4 -315 -1 -589 0 -608 4 l-35 8 40 6 c22 4 305
8 629 9 482 1 586 -1 578 -12z m4815 -27 l423 0 0 -22 0 -21 -277 6 c-153 4
-425 7 -605 7 l-328 0 0 22 c0 21 0 21 182 15 99 -4 372 -7 605 -7z m-4757
-84 c0 -21 -84 -25 -525 -26 -226 0 -493 -3 -595 -6 -176 -5 -229 1 -206 23 4
4 263 10 574 13 312 3 609 6 660 7 69 1 92 -2 92 -11z m5238 -1 c2 -2 1 -9 -3
-15 -7 -11 -636 -12 -1089 -1 -185 5 -230 9 -234 20 -4 12 90 13 659 7 365 -4
665 -9 667 -11z m-1028 -90 c20 -43 20 -58 16 -417 -2 -205 -5 -390 -5 -411 0
-21 -9 -50 -21 -66 -11 -16 -20 -34 -20 -40 0 -6 -18 -11 -40 -11 -36 0 -40 3
-40 25 0 15 -6 25 -14 25 -33 0 -37 60 -30 431 4 200 6 388 5 417 -1 28 2 52
7 52 5 0 12 9 15 20 4 17 14 20 56 20 50 0 51 0 71 -45z m397 35 c146 0 155
-1 160 -20 3 -11 9 -20 13 -20 9 0 23 -39 21 -57 -1 -6 -3 -173 -5 -370 -2
-197 -4 -379 -5 -404 0 -32 -6 -50 -21 -64 -11 -10 -20 -27 -20 -38 0 -19 -5
-20 -92 -13 -50 3 -129 6 -175 6 -76 0 -83 2 -83 20 0 11 -4 20 -8 20 -26 0
-31 63 -32 415 0 251 3 371 10 380 8 10 8 19 -1 32 -9 16 -6 28 21 72 22 35
37 50 47 47 8 -3 84 -6 170 -6z m-5651 -45 c21 -39 22 -52 23 -451 1 -397 0
-412 -19 -437 -11 -14 -20 -32 -20 -41 0 -12 -10 -16 -40 -16 -33 0 -40 3 -40
20 0 11 -4 20 -9 20 -27 0 -31 66 -29 475 3 394 4 422 22 448 16 23 25 28 55
25 30 -3 39 -9 57 -43z m567 0 c28 -48 34 -75 17 -75 -7 0 -7 -6 -1 -19 8 -14
14 -454 10 -691 0 -8 2 -24 6 -35 4 -13 -3 -34 -19 -58 -14 -21 -26 -44 -26
-52 0 -13 -28 -15 -175 -15 -151 0 -175 2 -175 15 0 9 -9 26 -20 37 -15 16
-20 35 -19 68 1 25 -2 208 -5 408 -7 361 -7 363 15 412 l23 50 170 0 171 0 28
-45z m307 31 c0 -8 6 -16 13 -18 9 -4 13 -97 15 -414 1 -225 0 -426 -4 -448
-4 -25 -12 -40 -24 -43 -12 -3 -16 -11 -13 -24 5 -17 0 -19 -41 -19 -27 0 -46
5 -46 11 0 6 -8 23 -19 37 -21 31 -26 139 -26 607 0 321 1 325 87 325 43 0 58
-4 58 -14z m5246 -23 c10 -21 17 -49 16 -63 -1 -14 -1 -41 -1 -60 2 -48 2 -52
0 -432 -2 -310 -3 -339 -20 -350 -9 -7 -20 -21 -24 -31 -9 -24 -72 -20 -72 3
0 9 -10 29 -23 44 -22 28 -22 30 -21 428 1 388 1 402 22 449 21 47 23 49 63
49 38 0 43 -3 60 -37z m-726 -96 c-11 -9 -15 -32 -15 -82 0 -38 -1 -190 -3
-337 l-2 -268 -41 0 -41 0 5 298 c4 163 7 314 7 335 0 33 3 37 24 37 14 0 27
4 30 8 2 4 -11 6 -30 4 -21 -3 -34 0 -34 7 0 7 22 11 58 11 46 -1 54 -3 42
-13z m-4697 -184 c4 -91 7 -242 7 -335 l0 -168 -40 0 -40 0 0 335 0 335 33 0
34 0 6 -167z m302 -170 l0 -333 -31 0 -31 0 -6 128 c-4 70 -7 221 -7 335 l0
208 38 -3 37 -3 0 -332z m4075 7 l0 -330 -41 0 -42 0 7 46 c3 26 6 174 6 330
l0 284 35 0 35 0 0 -330z m874 -2 c-4 -183 -8 -335 -10 -337 -2 -2 4 -10 14
-17 15 -12 8 -13 -45 -14 -35 0 -63 4 -63 8 0 5 18 8 40 7 22 -1 40 2 40 8 0
5 -11 7 -25 5 -14 -3 -28 -2 -30 3 -3 4 -2 156 1 338 l7 331 39 0 38 0 -6
-332z m286 53 c0 -153 3 -306 6 -340 l7 -61 -42 0 -41 0 0 333 c0 184 3 337 7
340 3 4 19 7 35 7 l28 0 0 -279z m-6400 -66 l0 -335 -41 0 -42 0 7 38 c3 20 6
171 6 335 l0 297 35 0 35 0 0 -335z m290 323 c0 -7 3 -158 7 -335 l6 -323 -42
0 -41 0 0 335 0 335 35 0 c21 0 35 -5 35 -12z m3008 -371 c22 -20 22 -25 19
-198 -3 -145 -7 -182 -21 -203 -20 -32 -56 -35 -56 -6 0 11 5 20 10 20 6 0 10
52 10 135 l0 135 -29 0 c-16 0 -31 -6 -35 -15 -4 -11 2 -15 26 -15 47 0 22
-18 -32 -23 -24 -2 -57 -1 -73 4 l-29 8 4 -134 c3 -116 1 -135 -12 -135 -8 0
-24 13 -35 28 -18 24 -20 45 -22 206 -2 187 0 200 42 216 11 4 63 6 115 3 78
-4 99 -9 118 -26z m-375 0 c12 -19 15 -60 17 -196 1 -147 -2 -176 -17 -201
l-17 -30 -98 0 c-91 0 -98 2 -110 23 -18 32 -24 338 -8 378 13 31 27 37 100
42 112 9 117 8 133 -16z m670 7 c20 -4 37 -12 37 -19 0 -7 6 -18 14 -24 11
-10 14 -43 12 -164 -2 -150 -6 -193 -20 -215 -5 -8 -41 -12 -100 -12 -134 0
-134 0 -136 202 0 87 4 176 10 198 l11 40 67 0 c37 0 84 -3 105 -6z m-1006
-54 c8 -22 12 -90 12 -180 -1 -192 -5 -200 -105 -200 -47 0 -75 5 -82 13 -7 8
-13 81 -16 174 -6 186 -1 210 54 219 19 3 42 7 50 9 8 2 29 2 45 2 25 -2 32
-8 42 -37z m1335 -3 c15 -19 17 -43 15 -182 -2 -88 -7 -168 -11 -177 -7 -15
-21 -18 -81 -18 -106 0 -110 7 -109 169 1 155 8 221 26 233 7 5 42 6 78 3 51
-5 69 -11 82 -28z m-1621 -32 c4 -16 6 -88 6 -160 0 -106 -2 -116 -6 -55 -5
61 -9 75 -23 78 -16 3 -18 -7 -20 -85 l-2 -88 -3 83 c-2 45 -8 82 -13 82 -6 0
-11 -37 -12 -82 l-2 -83 -3 84 c-4 77 -5 83 -23 78 -17 -4 -20 0 -20 35 0 33
3 38 13 29 18 -14 27 -4 27 32 0 25 -2 28 -15 17 -19 -16 -32 -5 -16 14 6 8
10 20 9 27 -2 7 10 16 27 20 52 12 69 7 76 -26z m709 -115 l0 -150 -24 0 c-22
0 -23 5 -30 77 -3 42 -6 109 -6 150 l0 73 30 0 30 0 0 -150z m375 0 l0 -145
-29 -3 -29 -4 6 144 c4 79 7 147 7 151 0 5 10 7 23 5 22 -3 22 -5 22 -148z
m727 135 c16 -3 27 -9 26 -13 0 -4 2 -15 7 -25 11 -26 0 -31 -27 -13 -32 23
-38 20 -38 -19 0 -41 17 -47 23 -7 4 25 4 25 6 -5 1 -38 27 -46 34 -10 2 12 4
-32 4 -98 -1 -66 -2 -90 -4 -52 -3 50 -8 67 -18 67 -12 0 -15 -17 -15 -81 0
-76 1 -81 20 -76 17 4 18 2 9 -14 -7 -14 -21 -19 -49 -19 -65 0 -71 17 -68
203 3 163 7 179 47 171 9 -1 28 -5 43 -9z m-2012 -106 c0 -42 -2 -47 -20 -42
-14 4 -20 0 -20 -12 0 -12 6 -16 20 -12 12 3 20 0 20 -8 0 -7 -8 -12 -17 -11
-16 1 -18 -9 -19 -76 -2 -71 0 -78 18 -78 10 0 16 -4 13 -10 -3 -5 -24 -10
-46 -10 -21 0 -39 5 -39 10 0 6 9 10 20 10 18 0 20 7 20 75 0 59 -3 75 -15 75
-10 0 -15 -17 -18 -67 l-3 -68 -2 78 c-2 71 0 77 18 77 11 0 20 5 20 11 0 6
-9 9 -20 6 -13 -3 -20 0 -20 9 0 9 8 14 18 12 11 -2 18 4 20 20 4 25 -7 28
-27 10 -11 -11 -13 -8 -9 15 5 25 2 27 -25 27 -42 0 -28 10 35 24 65 16 78 5
78 -65z m2225 66 c46 -10 52 -14 28 -14 -29 -1 -33 -4 -33 -28 -1 -25 -2 -26
-14 -10 -19 25 -28 21 -24 -10 2 -20 8 -28 21 -27 13 1 17 -6 17 -33 0 -27 -4
-33 -17 -31 -15 3 -18 -5 -18 -52 -1 -71 4 -92 21 -86 9 3 14 -2 14 -14 0 -16
-7 -20 -33 -20 -32 0 -57 14 -57 33 0 4 9 5 20 2 19 -6 20 -2 20 69 0 60 -3
76 -15 76 -10 0 -15 -16 -18 -62 -2 -51 -4 -45 -5 30 -2 86 -1 92 18 92 15 0
20 7 20 26 0 18 -4 25 -14 21 -19 -7 -30 22 -15 39 13 16 8 16 84 -1z m-1225
-394 c0 -22 -6 -44 -15 -51 -8 -7 -15 -23 -15 -36 0 -12 -5 -26 -11 -29 -5 -4
-9 -17 -8 -28 0 -12 1 -27 0 -33 -1 -6 -45 -19 -98 -28 -54 -10 -104 -20 -112
-22 -8 -3 -98 -23 -200 -45 -102 -22 -298 -65 -436 -96 -250 -55 -425 -93
-432 -93 -5 0 -4 496 1 501 2 2 302 3 665 1 l661 -2 0 -39z m1468 -220 l2
-254 -27 6 c-33 7 -242 53 -328 72 -33 7 -215 47 -405 89 -190 41 -370 82
-400 91 -30 9 -71 18 -91 21 -36 6 -36 6 -43 68 -4 36 -12 65 -21 72 -9 7 -15
27 -15 53 l0 41 663 -2 662 -3 3 -254z m1971 203 c2 -2 1 -7 -3 -11 -10 -10
-1399 -8 -1461 2 -25 3 -43 9 -41 13 4 7 1498 3 1505 -4z m-5375 -70 c13 -5
16 -22 16 -85 l0 -79 -45 0 c-41 0 -45 -2 -45 -24 0 -13 7 -26 15 -30 8 -3 15
-15 15 -26 0 -11 5 -20 10 -20 6 0 10 -8 10 -19 0 -10 8 -21 18 -23 15 -4 17
-13 14 -42 l-4 -36 -144 0 -144 0 0 65 c0 37 4 65 10 65 6 0 10 7 10 15 0 8 7
15 16 15 25 0 13 44 -13 48 -22 3 -23 8 -23 87 l0 84 103 4 c56 1 116 4 134 5
17 1 38 -1 47 -4z m4291 -84 c0 -82 -1 -85 -22 -82 -19 3 -23 -2 -23 -23 0
-14 11 -38 24 -52 20 -21 25 -37 25 -80 l0 -53 -150 0 -149 0 0 40 c0 33 3 40
20 40 13 0 20 7 20 19 0 11 5 23 10 26 6 4 8 11 5 16 -4 5 1 12 9 15 9 4 16
18 16 33 0 26 -3 27 -42 27 l-43 -1 -3 83 -3 83 153 -3 153 -3 0 -85z m442 80
l93 0 0 -80 0 -79 -167 -3 c-93 -2 -186 -1 -208 2 l-40 5 0 62 c-1 108 -2 107
122 100 58 -4 148 -7 200 -7z m-5677 -84 c0 -79 -2 -86 -20 -86 -28 0 -26 -49
3 -73 19 -16 22 -26 19 -78 l-4 -59 -149 0 -149 0 0 35 c0 28 4 35 20 35 13 0
20 7 20 20 0 11 5 20 10 20 6 0 10 9 10 19 0 10 7 21 15 25 9 3 14 15 12 28
-3 19 -11 24 -45 26 l-41 3 -3 79 -3 79 40 3 c22 2 91 5 153 6 l112 4 0 -86z
m535 1 l0 -82 -204 0 -205 0 -4 83 -4 82 209 0 208 0 0 -83z m5665 29 c0 -29
-3 -68 -6 -85 -6 -28 -10 -31 -44 -31 -32 0 -38 -4 -42 -24 -3 -15 0 -27 8
-30 8 -3 14 -12 14 -21 0 -8 5 -15 10 -15 6 0 10 -11 10 -25 0 -18 5 -25 20
-25 16 0 20 -7 20 -35 l0 -35 -150 0 -150 0 0 67 c0 36 3 63 7 60 8 -8 33 39
33 63 0 10 -9 20 -20 23 -18 5 -20 14 -20 86 l0 81 155 0 155 0 0 -54z m-3099
-77 c71 -15 179 -61 236 -100 60 -41 143 -118 143 -132 0 -6 -17 5 -37 25 -95
90 -198 151 -319 187 -55 16 -98 21 -190 21 -107 0 -128 -3 -203 -30 -99 -36
-183 -85 -268 -157 -68 -58 -78 -62 -35 -16 70 77 161 134 285 179 85 30 101
33 214 34 67 0 145 -5 174 -11z m-34 -24 c92 -18 214 -74 299 -138 111 -84
149 -77 -420 -77 -278 0 -506 3 -506 8 0 15 118 102 190 140 147 78 275 98
437 67z m-497 -30 c0 -2 -14 -12 -30 -20 -17 -9 -61 -44 -98 -79 -58 -55 -71
-63 -97 -59 -37 6 -70 -18 -127 -91 -150 -192 -351 -338 -559 -405 -55 -18
-192 -51 -195 -47 -1 0 -4 24 -7 52 l-6 51 80 18 c44 9 79 19 76 21 -2 2 -39
-3 -83 -12 l-80 -16 -38 26 c-22 14 -33 26 -26 26 7 0 11 3 8 6 -3 3 -74 -8
-156 -25 -171 -35 -162 -34 -162 -22 0 22 82 60 175 81 136 30 203 48 185 49
-8 1 -65 -10 -127 -23 -62 -13 -115 -21 -118 -18 -9 10 76 60 114 67 71 12
222 48 218 51 -2 2 -50 -5 -106 -16 -57 -12 -108 -19 -113 -18 -27 9 52 40
163 65 67 15 117 29 111 31 -7 2 -43 -3 -81 -12 -39 -9 -80 -16 -93 -16 -56 0
24 29 162 60 80 17 147 33 149 36 8 7 -12 4 -134 -21 -139 -29 -132 -28 -118
-14 6 6 71 26 144 44 74 18 126 34 117 34 -9 1 -54 -8 -100 -19 -93 -22 -111
-24 -85 -9 9 5 47 16 85 23 37 8 119 26 182 40 63 15 230 52 370 83 140 30
280 61 310 68 60 14 90 18 90 10z m974 -49 c111 -25 244 -54 296 -65 440 -95
545 -119 538 -127 -4 -4 -89 12 -196 36 -29 7 -55 10 -58 8 -2 -3 60 -19 139
-37 152 -34 187 -45 187 -60 0 -4 -37 0 -82 11 -45 10 -92 18 -103 16 -16 -2
85 -28 210 -53 11 -2 29 -11 40 -20 19 -16 18 -16 -15 -10 -19 4 -53 8 -75 11
-32 3 -35 2 -15 -5 14 -5 52 -14 85 -21 62 -13 136 -50 102 -50 -10 0 -74 11
-143 25 -70 15 -128 24 -131 22 -2 -2 40 -14 94 -26 213 -47 239 -55 271 -79
18 -14 31 -26 30 -28 -2 -1 -44 6 -93 16 -50 11 -99 19 -110 19 -23 -1 -7 -5
140 -39 91 -22 165 -54 165 -72 0 -12 -27 -9 -125 13 -49 11 -110 24 -135 29
-49 10 -93 12 -72 3 8 -3 1 -15 -20 -35 -32 -30 -32 -30 -90 -18 -32 7 -61 11
-64 8 -2 -3 23 -11 56 -17 l60 -12 0 -45 c0 -53 -2 -53 -116 -24 -139 36 -247
85 -370 166 -77 51 -223 191 -270 260 -44 64 -91 97 -134 92 -24 -2 -39 7 -82
48 -29 28 -71 63 -93 78 -22 14 -36 26 -30 26 5 0 99 -20 209 -44z m-3015 -54
c4 -6 5 -29 3 -52 l-4 -40 -198 0 c-110 0 -201 4 -204 9 -3 5 30 8 77 6 45 -1
54 0 20 2 -58 4 -96 23 -79 41 4 4 71 10 149 13 l142 6 -158 -1 c-142 -1 -166
1 -153 15 10 10 399 11 405 1z m5239 -10 c3 -9 -3 -10 -20 -4 -32 12 -206 14
-248 3 -26 -7 3 -9 108 -10 131 -1 143 -3 140 -18 -3 -16 -19 -19 -118 -24
l-115 -5 122 -2 c89 -1 123 1 127 11 3 6 5 3 3 -8 -2 -19 -11 -20 -205 -23
l-202 -2 0 50 0 50 202 -2 c151 -2 202 -6 206 -16z m-844 -327 c2 -181 4 -349
5 -372 l1 -43 165 0 165 0 0 369 c0 208 4 372 9 375 5 3 23 3 40 0 l31 -6 2
-367 3 -366 33 -3 33 -3 -3 -55 -3 -55 -264 1 c-145 0 -268 3 -272 6 -5 2 -8
189 -9 415 0 225 -1 413 -1 417 -3 19 3 23 31 20 l31 -3 3 -330z m-4812 -39
c2 -200 5 -367 8 -370 3 -2 19 -6 35 -9 28 -3 30 -6 33 -54 l3 -50 -273 -5
c-150 -3 -277 -1 -282 3 -5 5 -11 191 -14 424 l-5 415 35 0 35 0 7 -362 c4
-199 9 -365 12 -370 3 -5 80 -8 171 -7 l165 1 -8 363 c-4 199 -4 367 0 374 4
6 23 11 41 11 l34 0 3 -364z m520 -8 l3 -373 158 -2 c127 -1 159 1 163 12 8
20 10 104 12 438 l2 297 34 0 34 0 -5 -417 c-3 -230 -6 -419 -7 -419 0 -1
-124 -4 -273 -8 l-273 -7 0 56 0 55 35 0 35 0 0 370 0 370 40 0 40 0 2 -372z
m5226 2 l-4 -370 168 0 c92 0 169 1 170 3 1 1 4 164 7 362 l6 360 33 0 33 0
-1 -414 c0 -228 -3 -418 -6 -422 -3 -5 -129 -9 -280 -9 l-274 0 0 60 0 60 35
0 35 0 0 370 0 370 41 0 41 0 -4 -370z m-2368 280 c0 -6 -108 -10 -303 -10
-167 0 -412 -3 -545 -7 -221 -6 -242 -5 -242 10 0 16 44 17 545 17 357 0 545
-3 545 -10z m1744 -47 c8 -20 8 -547 0 -567 -5 -13 -27 -16 -134 -16 -71 0
-135 3 -144 6 -14 5 -16 41 -16 301 l0 294 144 -2 c116 -1 146 -5 150 -16z
m-4700 -60 c3 -38 5 -171 4 -298 l-3 -230 -27 -3 -28 -3 0 214 c0 206 -1 215
-23 248 -46 69 -129 87 -204 44 -72 -43 -76 -59 -72 -294 4 -194 3 -206 -15
-209 -10 -2 -22 0 -26 5 -6 6 -16 540 -11 586 1 4 91 7 200 7 l199 0 6 -67z
m418 -228 l-3 -295 -144 0 -145 0 0 295 0 295 148 0 147 0 -3 -295z m2385 276
c8 -12 12 -113 15 -319 3 -283 2 -301 -16 -321 -23 -26 -67 -27 -89 -3 -14 15
-17 46 -18 192 0 116 3 176 10 178 19 6 12 32 -8 32 -15 0 -21 10 -26 40 -9
54 -60 127 -113 165 -39 27 -53 30 -132 33 -68 3 -96 0 -124 -13 -70 -33 -146
-131 -146 -187 0 -18 7 -11 30 29 16 28 44 63 62 76 42 31 141 77 165 77 38 0
158 -67 196 -109 56 -62 72 -111 37 -111 -13 0 -24 10 -30 26 -18 47 -72 113
-106 129 -49 23 -163 23 -203 -1 -31 -19 -78 -78 -99 -126 -10 -24 -17 -28
-52 -28 -43 0 -47 -5 -26 -33 10 -12 14 -62 15 -183 2 -144 0 -169 -15 -185
-23 -25 -76 -25 -99 1 -16 18 -18 50 -23 318 -5 283 -4 300 14 320 19 20 29
20 394 21 355 1 376 0 387 -18z m209 -21 c11 0 26 6 33 13 10 10 20 3 49 -33
220 -276 533 -439 895 -466 l88 -7 -3 -71 -3 -71 -553 -3 c-527 -2 -554 -1
-573 16 -18 18 -20 36 -26 314 -6 280 -5 296 13 321 19 25 19 25 40 6 11 -10
29 -19 40 -19z m2220 29 c3 -6 3 -139 -1 -295 l-7 -284 -24 0 -24 0 0 214 0
214 -26 32 c-37 43 -74 60 -133 60 -42 0 -56 -5 -85 -31 -20 -17 -40 -47 -46
-67 -5 -20 -10 -124 -10 -230 l0 -193 -27 3 -28 3 2 140 c1 77 3 209 3 293 l0
152 199 0 c133 0 202 -4 207 -11z m424 -126 c0 -76 -3 -209 -7 -295 l-6 -158
-143 0 c-88 0 -145 4 -149 10 -4 6 -3 139 1 295 l7 285 148 0 149 0 0 -137z
m-6182 -165 l2 -288 -150 0 -150 0 -1 238 c0 130 -2 261 -5 290 l-5 53 153 -3
153 -3 3 -287z m2426 259 c3 -12 6 -155 6 -318 l0 -296 -22 -12 c-17 -8 -164
-11 -578 -9 l-555 3 -3 74 -3 73 26 -6 c25 -6 59 -2 225 31 265 51 508 188
674 378 35 41 68 81 73 90 8 14 12 14 37 1 30 -15 59 -12 76 9 15 18 37 9 44
-18z m594 -71 c43 -23 79 -67 111 -136 28 -63 29 -71 30 -229 2 -141 -1 -166
-15 -182 -41 -45 -44 -31 -44 209 0 209 -2 230 -20 260 -56 92 -186 105 -265
26 l-35 -35 0 -239 c0 -141 -4 -240 -9 -240 -40 0 -56 92 -48 266 6 130 16
174 54 228 45 63 85 86 155 86 32 0 71 -6 86 -14z m396 -81 c7 -100 8 -360 0
-367 -3 -3 -14 -4 -25 -1 -18 5 -19 16 -19 227 0 210 1 222 19 222 16 0 19
-11 25 -81z m-911 -77 c11 -241 9 -285 -9 -292 -9 -3 -20 -4 -25 0 -5 3 -9
104 -9 225 0 206 1 219 18 219 17 0 19 -13 25 -152z m501 128 c18 -7 43 -27
55 -44 20 -29 21 -40 19 -229 l-2 -198 -6 202 c-5 196 -6 202 -29 227 -52 55
-151 56 -205 2 l-31 -32 3 -212 3 -213 134 3 c74 2 135 0 135 -4 0 -5 -26 -8
-57 -9 -32 0 -97 -3 -145 -5 l-88 -5 0 223 c1 200 3 225 19 245 48 58 127 78
195 49z m-44 -70 c0 -8 -4 -18 -10 -21 -19 -12 -11 -38 10 -32 15 4 20 0 20
-13 0 -10 5 -20 11 -22 9 -3 8 -15 -2 -43 -9 -25 -14 -82 -14 -153 l0 -112
-37 0 -38 0 0 164 c0 133 3 166 15 176 8 7 15 25 15 41 0 19 5 29 15 29 8 0
15 -6 15 -14z m-1744 -251 l20 -44 -75 -16 c-42 -10 -80 -18 -86 -19 -6 0 -10
21 -10 49 l0 49 45 12 c75 20 83 18 106 -31z m3556 24 c38 -10 38 -10 38 -63
l0 -53 -90 20 c-90 20 -105 32 -75 57 8 7 15 20 15 30 0 34 15 35 112 9z
m-3532 -139 c0 -49 0 -49 -37 -55 -21 -4 -54 -11 -73 -16 -65 -17 -70 -14 -70
40 l0 48 68 16 c111 25 112 25 112 -33z m3499 24 l71 -16 0 -50 c0 -50 0 -50
-27 -45 -16 4 -56 12 -90 18 l-63 12 0 49 c0 56 0 56 109 32z m-104 -154 c17
0 17 -2 5 -10 -20 -13 -3417 -14 -3425 -1 -3 5 5 11 17 13 18 2 3308 1 3403
-2z m-527 -47 c82 -4 112 -10 112 -19 0 -7 -15 -16 -32 -19 -47 -8 -2505 -1
-2513 7 -4 4 -5 14 -2 23 6 13 130 15 1164 15 637 0 1209 -3 1271 -7z m62 -78
l0 -25 -1225 0 -1225 0 0 25 0 25 1225 0 1225 0 0 -25z m-2452 -63 c3 -10
-209 -12 -1054 -10 -837 2 -1058 6 -1062 16 -3 10 209 12 1054 10 837 -2 1058
-6 1062 -16z m2416 3 c-5 -13 -146 -15 -1179 -15 -645 0 -1180 3 -1189 6 -9 3
-16 10 -16 15 0 5 500 9 1195 9 1058 0 1194 -2 1189 -15z m2134 3 c-4 -10
-225 -14 -1051 -16 -576 -1 -1047 2 -1047 6 0 5 3 12 7 15 3 4 476 7 1051 7
830 0 1043 -3 1040 -12z m-4518 -102 l0 -53 -237 -10 -238 -10 206 -1 c114 -1
221 -5 238 -8 30 -6 31 -9 31 -55 l0 -49 -347 2 -348 3 -3 109 c-1 61 -1 115
1 120 3 8 113 10 351 8 l346 -3 0 -53z m2365 51 c2 -7 6 -63 9 -124 l6 -113
-499 0 -498 0 1 22 c1 17 -7 25 -33 34 -25 8 -29 12 -17 17 22 9 55 -5 89 -37
26 -24 66 -34 79 -20 3 3 4 14 1 25 -4 13 -14 19 -37 20 l-31 1 31 13 c33 15
96 5 109 -15 8 -13 72 -13 80 1 4 5 -1 19 -10 30 -14 15 -26 18 -58 12 -29 -4
-38 -3 -33 5 4 7 16 12 26 12 10 0 31 11 46 23 48 42 1 66 -50 26 l-26 -20 6
28 c7 35 -21 67 -36 42 -5 -7 -7 -24 -3 -37 7 -29 -27 -67 -74 -83 -46 -15
-51 -6 -19 31 29 35 34 70 11 70 -8 0 -26 -18 -39 -39 -30 -47 -44 -57 -59
-42 -7 7 -6 16 6 29 18 20 23 67 8 76 -22 14 -41 -7 -41 -44 0 -30 -6 -44 -31
-64 -32 -27 -49 -33 -49 -16 0 6 5 10 10 10 14 0 13 56 -1 83 -7 12 -19 27
-28 32 -11 7 165 12 544 15 308 3 570 6 583 7 13 1 25 -4 27 -10z m713 -117
l3 -120 -346 0 -346 0 3 53 3 52 205 5 c113 3 203 7 200 10 -3 2 -95 6 -205 9
l-200 6 -3 44 c-2 24 -1 48 1 55 3 8 98 10 343 9 l339 -2 3 -121z m80 2 l3
-122 -36 0 -35 0 0 118 c0 65 3 121 6 125 3 3 18 5 32 4 l27 -2 3 -123z
m-4998 13 l0 -106 -137 3 -138 3 -3 103 -3 102 141 0 140 0 0 -105z m3010 87
c-26 -21 -39 -94 -20 -117 17 -20 0 -19 -30 2 -34 23 -40 33 -40 68 0 39 -14
59 -34 52 -21 -8 -21 -51 0 -82 15 -23 15 -25 -1 -31 -20 -8 -30 2 -53 47 -11
22 -24 34 -37 34 -27 0 -21 -32 13 -67 31 -34 24 -44 -21 -29 -52 18 -80 48
-73 81 5 30 -15 57 -34 45 -12 -8 -13 -40 -1 -63 7 -14 4 -17 -24 -19 -20 -2
-38 3 -45 12 -18 22 -8 26 23 10 15 -8 27 -10 27 -5 0 12 -34 30 -55 30 -8 0
-18 -7 -22 -17 -8 -21 30 -53 63 -53 13 0 24 -5 24 -11 0 -7 -12 -9 -32 -5
-39 6 -74 -15 -64 -40 7 -19 46 -16 113 10 34 13 48 13 70 4 l28 -12 -25 -4
c-14 -2 -28 -9 -32 -16 -29 -44 31 -50 77 -7 34 32 73 45 95 31 11 -7 7 -10
-17 -10 -32 0 -52 -27 -38 -50 4 -7 -158 -10 -489 -10 l-495 0 -3 120 -3 120
589 0 c563 0 587 -1 566 -18z m3345 -65 c4 -40 5 -84 3 -97 l-3 -25 -150 0
-150 0 -3 98 -3 97 150 0 149 0 7 -73z m-6495 -277 l0 -111 -67 3 -68 3 -3
108 -3 107 71 0 70 0 0 -110z m1778 103 c139 -6 152 -8 152 -25 0 -17 -20 -18
-470 -18 l-470 0 0 25 0 25 318 0 c176 0 387 -3 470 -7z m4712 -108 l0 -115
-75 0 -75 0 0 115 0 115 75 0 75 0 0 -115z m-2100 85 c0 -20 -7 -20 -1215 -20
-1208 0 -1215 0 -1215 20 0 20 7 20 1215 20 1208 0 1215 0 1215 -20z m967 5
c11 -31 59 -28 -509 -26 -421 1 -428 1 -428 21 0 20 7 20 465 20 410 0 466 -2
472 -15z m-3404 -50 c24 -6 40 -35 20 -35 -89 -1 -842 -2 -875 -1 -39 1 -48 4
-48 19 0 10 3 22 8 26 9 10 857 1 895 -9z m1435 7 l952 -2 0 -25 0 -24 -1161
1 c-1209 2 -1182 1 -1166 41 3 9 55 12 213 11 115 0 638 -1 1162 -2z m1912
-21 c0 -17 -10 -20 -72 -26 -40 -3 -248 -5 -463 -3 -355 3 -390 4 -393 20 -2
12 5 18 25 21 15 2 225 5 466 6 424 1 437 0 437 -18z m-3309 -51 c47 -26 11
-30 -261 -30 -278 0 -281 0 -270 20 10 19 21 20 261 20 153 0 258 -4 270 -10z
m1594 -10 c18 -20 17 -20 -403 -20 -232 0 -422 4 -422 8 0 30 29 32 415 32
379 0 392 -1 410 -20z m1310 0 c18 -20 17 -20 -275 -20 -292 0 -293 0 -275 20
17 19 31 20 275 20 244 0 258 -1 275 -20z m-2851 -60 c4 -4 2 -24 -4 -42 -18
-49 -6 -85 35 -110 l35 -20 0 -569 c0 -343 -4 -569 -9 -569 -5 0 -17 -7 -25
-16 -12 -11 -13 -20 -6 -34 11 -21 3 -51 -17 -63 -7 -4 -13 -16 -13 -26 0 -15
-29 -53 -30 -40 0 2 -3 132 -7 290 -5 260 -4 288 12 323 14 28 15 42 7 59 -5
12 -20 47 -32 79 -29 75 -76 128 -143 161 -76 37 -121 42 -182 22 -106 -37
-180 -115 -206 -220 -7 -27 -17 -53 -22 -57 -6 -4 -3 -20 8 -44 16 -33 18 -74
22 -321 3 -250 2 -282 -12 -277 -8 4 -15 14 -15 25 0 10 -6 22 -13 26 -21 13
-28 42 -14 64 10 17 9 23 -10 39 l-23 18 0 563 -1 564 30 12 c55 23 76 77 46
119 -12 18 -12 24 -1 40 13 18 28 19 297 16 156 -2 288 -7 293 -12z m1566 -5
c9 -10 9 -19 2 -27 -5 -7 -11 -22 -12 -33 -6 -50 1 -66 35 -86 l35 -21 0 -567
c0 -552 -1 -568 -20 -586 -16 -14 -18 -26 -13 -61 5 -37 3 -44 -11 -44 -9 0
-16 -8 -16 -19 0 -21 -27 -47 -38 -37 -4 4 -8 176 -10 382 -2 353 -2 376 17
416 16 36 17 46 6 58 -7 8 -15 32 -19 52 -19 108 -127 248 -228 297 -64 30
-153 51 -195 44 -72 -11 -180 -69 -239 -127 -101 -102 -163 -298 -113 -362 5
-6 8 -24 7 -40 0 -16 0 -184 1 -373 2 -234 -1 -347 -8 -354 -8 -8 -17 -4 -33
13 -13 14 -22 29 -20 34 2 6 -3 15 -10 21 -21 15 -29 44 -18 65 8 15 6 24 -10
40 -20 20 -20 31 -20 585 l0 565 23 9 c50 19 70 62 51 110 -26 63 -37 61 426
61 359 0 419 -2 430 -15z m1305 -6 c4 -12 2 -26 -4 -32 -21 -21 -13 -76 15
-102 15 -14 33 -25 40 -25 12 0 14 -97 14 -567 l0 -567 -26 -21 c-22 -17 -25
-25 -17 -40 11 -20 6 -55 -8 -55 -5 0 -9 -8 -9 -18 0 -11 -9 -27 -20 -37 -20
-18 -20 -17 -22 176 -1 107 -2 232 -3 279 0 50 5 103 14 129 11 34 11 48 2 62
-6 10 -11 24 -11 31 0 29 -49 116 -86 152 -147 145 -363 97 -450 -101 -13 -30
-24 -60 -24 -67 0 -8 -5 -16 -11 -18 -9 -3 -9 -17 -1 -53 6 -28 13 -172 15
-322 4 -226 2 -270 -9 -266 -8 3 -14 16 -14 29 0 14 -6 24 -14 24 -17 0 -26
32 -14 53 10 18 -6 57 -22 57 -6 0 -10 208 -10 563 l0 564 37 24 c48 31 61 66
41 106 -10 20 -12 36 -6 47 8 14 42 16 303 16 290 0 294 0 300 -21z m-4775
-139 l0 -100 -150 0 -150 0 0 100 0 100 150 0 150 0 0 -100z m6354 53 c3 -21
6 -65 6 -99 l0 -61 -147 -6 c-82 -3 -151 -3 -155 0 -10 5 -11 187 -1 196 3 4
70 7 148 7 l142 0 7 -37z m-4036 -68 l22 -6 0 -574 c0 -498 -2 -574 -15 -579
-11 -4 -13 -16 -8 -51 5 -38 3 -45 -11 -45 -10 0 -16 -9 -16 -25 0 -14 -4 -25
-10 -25 -17 0 -33 -41 -21 -53 7 -7 11 -56 11 -125 0 -103 -2 -113 -17 -110
-16 3 -18 18 -18 142 0 103 -3 140 -12 143 -7 3 -13 15 -13 28 0 12 -7 26 -16
29 -13 5 -15 15 -10 46 3 22 2 41 -4 45 -6 4 -10 208 -10 580 l0 575 35 14
c19 8 38 22 41 31 5 13 10 12 29 -9 12 -13 32 -27 43 -31z m1528 20 c15 -14
33 -25 40 -25 12 0 14 -98 14 -574 0 -519 -2 -574 -16 -580 -12 -4 -14 -13 -9
-29 10 -34 8 -58 -9 -70 -8 -7 -16 -21 -18 -31 -1 -10 -10 -24 -20 -29 -20
-13 -48 6 -48 35 0 10 -7 21 -16 25 -12 5 -15 14 -10 43 4 27 2 41 -9 50 -13
11 -15 89 -15 584 l0 572 36 13 c19 7 38 19 41 27 7 18 7 18 39 -11z m-1826
-584 c0 -495 -2 -570 -15 -575 -13 -5 -15 64 -15 569 0 499 2 575 15 575 12 0
14 -76 15 -569z m40 -1 c0 -500 -2 -570 -15 -570 -13 0 -15 70 -15 570 0 500
2 570 15 570 13 0 15 -70 15 -570z m31 23 c0 -302 2 -558 5 -570 3 -16 -1 -23
-11 -23 -13 0 -15 71 -15 570 0 373 3 570 10 570 7 0 10 -190 11 -547z m49
-23 c0 -500 -2 -570 -15 -570 -13 0 -15 70 -15 570 0 500 2 570 15 570 13 0
15 -70 15 -570z m250 -11 c0 -373 -3 -569 -10 -569 -7 0 -10 199 -10 576 0
381 3 573 10 569 6 -4 10 -207 10 -576z m40 5 c0 -456 -3 -575 -12 -572 -10 4
-14 127 -16 564 -1 307 0 565 3 572 2 6 9 12 15 12 7 0 10 -187 10 -576z m80
-5 c0 -452 -3 -570 -12 -567 -10 4 -14 127 -16 564 -1 307 0 565 3 572 3 7 9
10 15 7 6 -4 10 -204 10 -576z m1070 6 c0 -377 -3 -575 -10 -575 -11 0 -15
1132 -3 1143 3 4 8 7 10 7 2 0 3 -259 3 -575z m-1110 -5 c0 -373 -3 -570 -10
-570 -7 0 -10 197 -10 570 0 373 3 570 10 570 7 0 10 -197 10 -570z m1150 0
c0 -500 -2 -570 -15 -570 -13 0 -15 70 -15 570 0 500 2 570 15 570 13 0 15
-70 15 -570z m40 0 c0 -373 -3 -570 -10 -570 -7 0 -10 197 -10 570 0 373 3
570 10 570 7 0 10 -197 10 -570z m40 -1 c0 -452 -3 -570 -12 -567 -10 4 -14
129 -16 571 -2 500 0 567 13 567 13 0 15 -69 15 -571z m250 1 c0 -373 -3 -570
-10 -570 -7 0 -10 197 -10 570 0 373 3 570 10 570 7 0 10 -197 10 -570z m48 3
c-2 -442 -6 -567 -15 -571 -10 -3 -13 115 -13 567 0 502 2 571 15 571 13 0 15
-67 13 -567z m32 -3 c0 -373 -3 -570 -10 -570 -7 0 -10 197 -10 570 0 373 3
570 10 570 7 0 10 -197 10 -570z m47 8 c-1 -363 -6 -565 -12 -568 -7 -3 -11
188 -13 563 -2 496 0 567 13 567 13 0 14 -71 12 -562z m813 -13 c0 -377 -3
-575 -10 -575 -7 0 -10 198 -10 575 0 377 3 575 10 575 7 0 10 -198 10 -575z
m-1760 448 c112 -45 185 -125 232 -252 27 -72 28 -74 24 -31 -4 45 -4 45 10
15 20 -46 18 -65 -9 -65 -21 0 -25 7 -36 54 -36 159 -200 290 -344 273 -149
-18 -288 -162 -302 -312 -2 -21 -45 -36 -45 -16 0 6 6 11 14 11 8 0 19 20 26
48 29 115 108 215 208 263 84 40 145 43 222 12z m-3262 -111 l3 -112 -71 0
-70 0 0 109 c0 124 -3 120 90 117 l45 -1 3 -113z m3274 65 c30 -14 74 -43 97
-66 62 -61 125 -207 94 -218 -7 -3 -17 13 -23 39 -27 97 -89 174 -175 214
-144 68 -320 -26 -374 -201 -23 -73 -47 -89 -37 -24 15 92 110 220 186 251 79
33 99 38 136 33 23 -2 66 -15 96 -28z m3208 -77 l0 -110 -70 0 -70 0 0 110 0
110 70 0 70 0 0 -110z m-3330 -650 l0 -690 -90 0 -90 0 0 115 c0 106 -2 117
-22 137 -28 28 -29 40 -34 451 -4 302 -3 321 16 364 24 55 25 51 -2 55 -28 4
-26 21 6 93 32 70 68 109 128 139 97 49 88 120 88 -664z m105 671 c75 -36 146
-125 160 -203 l7 -38 75 0 c55 0 74 -3 71 -12 -7 -20 -132 -23 -151 -4 -13 14
-16 14 -21 1 -3 -8 -1 -15 4 -15 6 0 10 -11 10 -24 0 -14 4 -27 9 -31 6 -3 10
-161 11 -385 1 -370 0 -379 -20 -390 -11 -6 -19 -14 -19 -18 1 -4 1 -60 0
-125 l-1 -118 -102 3 -103 3 -3 688 c-2 772 -10 707 73 668z m-3162 -170 l47
-1 0 -100 0 -100 -150 0 -150 0 0 100 0 99 78 3 c42 2 88 2 102 1 14 -1 46 -2
73 -2z m6385 -108 l3 -103 -151 0 -150 0 0 100 0 99 88 4 c48 2 114 3 147 3
l60 -1 3 -102z m-4768 -25 c0 -29 3 -276 7 -549 3 -290 2 -498 -3 -500 -5 -3
-34 -2 -64 2 l-55 6 53 1 52 2 0 80 0 80 -50 0 c-61 0 -67 18 -7 22 l42 3 3
78 3 77 -51 0 -50 0 0 -59 c0 -61 -13 -89 -23 -48 -3 12 -6 145 -6 295 0 150
-3 277 -6 281 -3 5 2 22 10 37 14 28 15 27 15 -43 l0 -73 55 0 55 0 0 75 0 75
-50 0 c-38 0 -50 4 -50 15 0 11 12 15 50 15 l50 0 0 76 0 77 -32 -25 c-18 -13
-44 -47 -58 -76 -25 -53 -50 -68 -50 -32 0 53 50 121 108 146 47 21 52 18 52
-38z m78 33 c20 -10 44 -27 53 -37 22 -25 49 -79 49 -99 0 -29 -28 -15 -40 20
-11 32 -70 95 -90 95 -6 0 -10 -31 -10 -69 l0 -70 53 -3 c28 -2 52 -7 52 -13
0 -5 -24 -11 -52 -13 l-53 -3 0 -75 0 -74 55 0 55 0 0 72 c0 65 1 70 14 53 11
-16 14 -83 15 -328 1 -208 -1 -307 -9 -307 -6 0 -10 25 -10 60 l0 60 -55 0
-55 0 0 -74 0 -75 47 -3 c66 -4 70 -28 4 -28 l-51 0 0 -80 0 -80 53 -1 52 -2
-44 -7 c-24 -4 -54 -5 -67 -2 l-24 4 0 549 c0 373 3 549 10 549 6 0 27 -9 48
-19z m2802 -546 l0 -545 -62 2 c-57 1 -58 2 -15 5 l47 4 0 80 0 79 -50 0 c-27
0 -50 5 -50 10 0 6 23 10 50 10 l50 0 0 80 0 80 -55 0 -55 0 0 -60 c0 -60 -12
-80 -24 -37 -3 12 -6 158 -6 325 0 241 3 302 13 302 9 0 13 -14 12 -47 -3 -85
4 -97 58 -98 l47 -1 0 78 0 78 -50 0 c-80 0 -61 24 25 32 29 3 29 4 33 71 3
55 1 67 -11 67 -21 0 -85 -76 -92 -111 -6 -27 -28 -39 -39 -21 -5 8 21 66 44
98 20 29 80 64 108 64 l22 0 0 -545z m99 514 c27 -20 62 -76 75 -121 3 -11 15
-18 31 -18 17 0 25 6 25 18 1 16 1 16 11 0 5 -10 17 -18 24 -18 8 0 15 -4 15
-8 0 -33 -83 -44 -107 -14 -8 9 -22 35 -32 57 -21 47 -76 108 -92 103 -6 -2
-10 -7 -10 -11 1 -4 1 -34 1 -67 l0 -60 50 0 c28 0 50 -4 50 -10 0 -5 -22 -10
-49 -10 -57 0 -58 -1 -53 -97 l4 -64 51 3 51 3 -1 73 c-2 78 12 98 21 30 7
-54 14 -588 9 -605 -11 -31 -23 -8 -23 41 0 52 -1 55 -27 58 -16 2 -40 1 -55
-1 -28 -3 -28 -4 -28 -77 l0 -74 51 0 c31 0 48 -4 44 -10 -3 -5 -26 -10 -51
-10 l-44 0 0 -75 0 -75 50 0 c28 0 50 -4 50 -10 0 -6 -28 -10 -65 -10 l-65 0
0 546 0 547 30 -7 c17 -3 43 -15 59 -27z m-1806 -301 c4 -112 7 -245 7 -296
l0 -93 -32 3 -33 3 -3 293 -2 292 28 0 29 0 6 -202z m637 89 c0 -63 3 -196 7
-296 l6 -183 -34 4 -34 3 -3 293 -2 292 30 0 30 0 0 -113z m-3520 -7 l0 -110
-70 0 -70 0 0 110 0 110 70 0 70 0 0 -110z m6470 -15 l0 -115 -65 0 -65 0 0
115 0 115 65 0 65 0 0 -115z m-4942 -263 c2 -221 2 -232 -16 -232 -15 0 -21
10 -26 46 -8 63 -8 409 1 418 4 4 14 5 23 4 13 -3 15 -35 18 -236z m432 131
c0 -60 3 -165 7 -235 l6 -128 -26 0 -25 0 -4 228 c-2 125 -2 230 0 235 2 4 12
7 23 7 18 0 19 -8 19 -107z m2424 91 c3 -9 6 -116 6 -240 l0 -224 -22 4 c-23
3 -23 3 -26 227 -1 123 0 229 2 236 7 18 33 16 40 -3z m454 -226 l2 -228 -25
0 -25 0 0 231 0 230 23 -3 c22 -3 22 -3 25 -230z m-4698 32 l0 -100 -150 0
-150 0 0 100 0 100 150 0 150 0 0 -100z m6335 8 c4 -35 5 -79 3 -98 l-3 -35
-150 0 -150 0 -3 98 -3 97 150 0 149 0 7 -62z m-4145 -494 l0 -114 -145 0
-145 0 0 84 c0 46 3 97 6 114 l6 31 122 3 c66 2 129 1 139 -1 15 -3 17 -17 17
-117z m388 -1 l3 -113 -146 0 -145 0 0 115 0 116 143 -3 142 -3 3 -112z m205
108 c15 -1 17 -13 17 -106 l0 -105 -94 0 c-76 0 -95 3 -100 16 -12 31 -7 192
7 197 10 3 112 2 170 -2z m1355 -108 l3 -113 -146 0 -145 0 0 108 c0 60 3 112
7 116 4 3 68 5 142 4 l136 -3 3 -112z m-690 5 l-3 -103 -82 -3 -82 -3 -3 96
c-2 52 -1 100 0 105 2 6 42 10 88 10 l85 0 -3 -102z m-2018 -10 l0 -93 -54 0
c-30 0 -57 2 -59 5 -7 8 -15 168 -9 174 3 4 32 6 64 6 l58 0 0 -92z m450 3 c0
-50 -4 -92 -9 -96 -5 -3 -34 -2 -64 1 l-55 6 -5 82 c-2 44 -3 84 0 89 2 4 33
7 69 7 l64 0 0 -89z m2418 -8 l3 -93 -66 0 -65 0 -2 68 c-1 37 -2 76 -3 87 -1
23 26 32 90 31 l40 -1 3 -92z m450 0 l-3 -88 -62 -3 -63 -3 0 91 0 90 65 0 66
0 -3 -87z"/>
<path d="M718 7418 c-29 -45 -38 -92 -38 -199 l0 -109 75 0 75 0 0 78 c0 151
-28 243 -77 250 -12 2 -26 -6 -35 -20z"/>
<path d="M5957 7432 c-36 -39 -47 -89 -47 -207 l0 -115 69 0 c83 0 83 -2 72
150 -8 104 -22 154 -51 177 -20 16 -24 16 -43 -5z"/>
<path d="M5955 6490 c-72 -16 -105 -61 -105 -143 l0 -54 42 2 c52 3 88 -9 88
-29 0 -12 -16 -16 -66 -18 l-66 -3 -1 -190 -2 -190 134 -3 c101 -2 136 1 143
10 4 7 8 131 8 276 l0 262 -40 40 c-22 22 -48 40 -57 41 -10 0 -25 2 -33 3 -8
2 -28 0 -45 -4z m152 -332 c-4 -79 -7 -173 -7 -210 l0 -68 -120 0 c-104 0
-120 2 -120 16 0 14 14 16 109 12 l109 -3 6 40 c3 22 6 99 8 170 l3 130 -35 3
c-32 3 -49 15 -50 34 0 4 21 9 48 11 26 2 49 4 51 5 2 1 1 -62 -2 -140z"/>
<path d="M669 6472 c-14 -8 -36 -30 -47 -47 -20 -29 -22 -44 -22 -201 0 -93 3
-213 7 -266 l6 -98 139 0 138 0 0 254 c0 257 -5 301 -39 338 -37 39 -133 50
-182 20z"/>
<path d="M2930 5885 l0 -105 45 0 45 0 0 105 c0 63 -4 105 -10 105 -6 0 -10
-41 -10 -102 0 -70 -3 -98 -10 -88 -5 8 -10 54 -10 103 0 86 0 87 -25 87 l-25
0 0 -105z"/>
<path d="M3652 5908 l3 -133 45 2 c25 1 60 2 78 2 l32 1 0 130 0 130 -25 0
c-31 0 -33 -25 -2 -35 l22 -8 -22 -4 c-22 -4 -23 -9 -23 -99 0 -56 -4 -94 -10
-94 -6 0 -10 38 -10 95 0 57 -4 95 -10 95 -6 0 -10 -38 -10 -95 0 -57 -4 -95
-10 -95 -6 0 -10 38 -10 94 0 88 -1 94 -22 101 l-23 8 23 4 c31 6 28 33 -3 33
l-26 0 3 -132z"/>
<path d="M2403 5573 l-263 -3 1 -98 c1 -145 17 -171 18 -29 l1 117 208 -2 207
-3 -202 -2 -203 -3 0 -88 c0 -60 3 -82 10 -72 5 8 10 45 10 83 l0 67 483 2
c265 0 460 4 432 8 l-50 7 40 2 c22 2 51 7 65 11 24 8 -205 8 -757 3z"/>
<path d="M3785 5570 l300 -5 -224 -3 c-123 -1 -221 -5 -217 -9 4 -5 213 -10
464 -13 l457 -5 -3 -55 c-1 -30 2 -68 7 -85 l9 -30 3 30 c2 25 3 22 9 -15 5
-32 7 -10 8 78 l2 122 -557 -2 c-479 -2 -515 -3 -258 -8z"/>
<path d="M3299 5381 c-32 -33 -36 -58 -14 -100 16 -33 33 -41 81 -41 44 0 84
40 84 82 0 41 -48 88 -90 88 -22 0 -41 -9 -61 -29z"/>
<path d="M3273 3262 c-36 -31 -77 -94 -87 -134 l-6 -28 75 0 75 0 0 95 c0 106
-5 112 -57 67z"/>
<path d="M3190 2935 l0 -105 70 0 70 0 0 105 0 105 -70 0 -70 0 0 -105z m128
-2 l-3 -88 -55 1 -55 1 -3 87 -3 86 61 0 61 0 -3 -87z"/>
<path d="M3190 2675 l0 -105 70 0 71 0 -3 103 -3 102 -67 3 -68 3 0 -106z
m126 -2 l-1 -88 -57 -3 -58 -3 0 91 0 90 59 0 59 0 -2 -87z"/>
<path d="M3190 2415 l0 -105 70 0 70 0 0 105 0 105 -70 0 -70 0 0 -105z m130
-1 l0 -84 -55 0 -55 0 0 88 0 87 55 -3 55 -4 0 -84z"/>
<path d="M3194 2198 c2 -40 4 -87 5 -104 l1 -31 65 -2 65 -2 0 105 0 106 -70
0 -70 0 4 -72z m124 -35 l-3 -88 -50 0 -50 0 -3 88 -3 87 56 0 56 0 -3 -87z"/>
<path d="M3424 3238 c3 -29 5 -72 6 -95 l0 -43 70 0 c81 0 83 4 46 78 -26 52
-86 112 -112 112 -13 0 -15 -9 -10 -52z"/>
<path d="M3430 2935 l0 -106 68 3 67 3 0 100 0 100 -67 3 -68 3 0 -106z m120
-2 l0 -88 -55 0 -55 0 0 88 0 87 55 0 55 0 0 -87z"/>
<path d="M3430 2675 l0 -105 70 0 71 0 -3 103 -3 102 -67 3 -68 3 0 -106z
m120 -6 l0 -90 -52 3 -53 3 -3 88 -3 87 56 0 55 0 0 -91z"/>
<path d="M3430 2415 l0 -105 70 0 70 0 0 105 0 105 -70 0 -70 0 0 -105z m130
0 l0 -85 -60 0 -60 0 0 85 0 85 60 0 60 0 0 -85z"/>
<path d="M1792 2633 l3 -78 53 -3 52 -3 0 80 0 81 -55 0 -56 0 3 -77z"/>
<path d="M1797 2523 c-9 -8 -9 -116 -1 -137 4 -12 20 -16 55 -16 l49 0 0 80 0
80 -48 0 c-27 0 -52 -3 -55 -7z"/>
<path d="M1968 2703 c-2 -5 -2 -41 0 -80 l4 -73 48 0 c56 0 57 3 52 103 l-4
57 -48 0 c-27 0 -50 -3 -52 -7z"/>
<path d="M1970 2450 l0 -80 50 0 50 0 0 80 0 80 -50 0 -50 0 0 -80z"/>
<path d="M4660 2620 l0 -80 52 2 52 3 4 54 c2 29 1 64 -2 77 -6 21 -12 24 -56
24 l-50 0 0 -80z"/>
<path d="M4662 2443 l3 -78 50 0 50 0 3 78 3 77 -56 0 -56 0 3 -77z"/>
<path d="M4842 2623 l3 -78 50 0 50 0 3 78 3 77 -56 0 -56 0 3 -77z"/>
<path d="M4840 2447 c0 -41 2 -76 4 -78 2 -2 27 -2 55 -1 l51 4 0 74 0 74 -55
0 -55 0 0 -73z"/>
<path d="M3341 7600 c-28 -536 -38 -1090 -21 -1195 5 -36 8 3 11 140 2 105 3
208 3 230 -1 22 3 214 8 428 5 213 7 395 5 405 -3 11 -5 9 -6 -8z"/>
<path d="M3407 7220 c5 -516 16 -904 24 -845 11 77 10 504 -2 785 -17 408 -25
430 -22 60z"/>
<path d="M1983 1693 c-13 -8 -23 -21 -23 -28 0 -17 -129 -337 -142 -352 -6 -7
-19 -13 -29 -13 -11 0 -19 -4 -19 -10 0 -6 30 -10 70 -10 40 0 70 4 70 10 0 6
-11 10 -23 10 -13 0 -26 3 -29 6 -3 3 4 34 16 70 l21 64 82 0 81 0 21 -62 c26
-76 26 -78 1 -78 -11 0 -20 -4 -20 -10 0 -6 35 -10 85 -10 50 0 85 4 85 10 0
6 -11 10 -25 10 -34 0 -46 23 -106 190 -76 215 -75 214 -85 216 -5 2 -19 -4
-31 -13z"/>
<path d="M5068 1693 c-16 -8 -28 -21 -28 -30 0 -15 -96 -266 -127 -330 -11
-24 -22 -33 -39 -33 -13 0 -24 -4 -24 -10 0 -6 30 -10 70 -10 40 0 70 4 70 10
0 6 -11 10 -25 10 -31 0 -31 12 -4 85 l21 56 81 -3 80 -3 18 -50 c24 -67 23
-85 -1 -85 -11 0 -20 -4 -20 -10 0 -6 35 -10 85 -10 50 0 85 4 85 10 0 6 -11
10 -24 10 -36 0 -32 -8 -143 302 -21 60 -40 108 -43 107 -3 -1 -17 -8 -32 -16z"/>
<path d="M1450 1690 c0 -5 13 -10 29 -10 17 0 31 -6 35 -16 8 -21 8 -259 0
-318 -6 -40 -10 -46 -30 -46 -13 0 -24 -4 -24 -10 0 -6 35 -10 85 -10 47 0 85
4 85 9 0 5 -12 11 -27 13 -28 3 -28 4 -31 84 l-3 82 80 3 c72 4 83 7 110 33
61 59 46 141 -32 177 -34 15 -66 19 -159 19 -72 0 -118 -4 -118 -10z m236 -26
c40 -27 57 -69 44 -108 -16 -49 -41 -67 -104 -73 l-56 -6 0 102 0 101 45 0
c26 0 57 -7 71 -16z"/>
<path d="M2260 1691 c0 -5 12 -11 28 -13 l27 -3 0 -185 0 -185 -27 -3 c-16 -2
-28 -8 -28 -13 0 -5 38 -9 85 -9 47 0 85 4 85 9 0 5 -12 11 -27 13 -28 3 -28
4 -31 81 -2 63 0 78 13 83 33 13 71 -17 126 -99 l55 -82 58 -3 c39 -2 56 0 51
7 -3 6 -15 11 -25 11 -11 0 -45 34 -89 89 l-70 90 33 11 c45 15 67 41 73 88 7
51 -15 85 -68 106 -44 18 -269 23 -269 7z m257 -45 c35 -42 31 -87 -12 -125
-30 -26 -44 -31 -85 -31 l-50 0 0 88 c0 49 3 92 8 96 4 4 31 6 61 4 44 -4 59
-10 78 -32z"/>
<path d="M2700 1691 c0 -5 10 -11 23 -13 22 -3 22 -5 25 -190 l2 -188 -25 0
c-14 0 -25 -4 -25 -10 0 -6 35 -10 85 -10 50 0 85 4 85 10 0 6 -13 10 -30 10
l-30 0 0 85 c0 67 3 85 14 85 37 0 66 -24 112 -92 27 -40 54 -78 61 -85 14
-15 113 -18 113 -3 0 6 -9 10 -21 10 -24 0 -32 7 -87 82 -23 32 -52 66 -64 78
l-22 20 32 6 c62 12 90 56 82 129 -3 30 -39 64 -79 75 -46 13 -251 13 -251 1z
m224 -22 c35 -16 56 -64 45 -103 -5 -17 -9 -32 -9 -33 0 -12 -62 -38 -101 -43
l-49 -6 0 98 0 98 45 0 c24 0 55 -5 69 -11z"/>
<path d="M3254 1682 c-82 -39 -144 -154 -125 -234 28 -120 152 -196 276 -168
65 15 93 33 135 88 32 42 35 51 35 117 0 61 -4 77 -28 113 -44 67 -97 96 -181
100 -53 2 -81 -2 -112 -16z m185 -33 c57 -42 76 -84 76 -169 0 -123 -50 -180
-157 -180 -45 0 -59 5 -92 32 -95 78 -102 235 -14 314 32 30 46 34 103 31 35
-2 61 -11 84 -28z"/>
<path d="M3768 1675 c-134 -70 -157 -231 -49 -336 27 -25 61 -49 77 -53 15 -4
47 -16 70 -26 108 -50 297 -100 374 -100 26 0 48 8 65 23 l26 22 -73 1 c-72 1
-294 46 -311 63 -5 5 6 16 27 26 49 23 114 99 122 142 11 59 -1 130 -30 174
-57 85 -199 115 -298 64z m193 -21 c74 -51 101 -177 59 -267 -30 -64 -71 -92
-136 -92 -156 0 -232 230 -114 347 35 35 42 38 96 38 46 0 66 -5 95 -26z"/>
<path d="M4150 1690 c0 -5 11 -10 25 -10 14 0 25 -6 25 -12 0 -7 2 -74 4 -148
5 -152 18 -195 65 -223 44 -26 159 -26 203 0 57 33 67 63 76 229 7 144 8 149
30 152 12 2 22 8 22 13 0 5 -34 9 -75 9 -72 0 -105 -15 -47 -22 25 -3 28 -7
34 -58 10 -91 9 -200 -4 -243 -15 -51 -56 -77 -120 -77 -105 0 -121 24 -126
197 -5 165 -2 183 38 183 17 0 30 5 30 10 0 6 -37 10 -90 10 -53 0 -90 -4 -90
-10z"/>
<path d="M4630 1691 c0 -6 15 -11 33 -13 l32 -3 0 -185 0 -185 -32 -3 c-18 -2
-33 -7 -33 -13 0 -5 43 -9 95 -9 57 0 95 4 95 10 0 6 -14 10 -30 10 l-30 0 2
188 3 187 28 3 c15 2 27 8 27 13 0 5 -43 9 -95 9 -52 0 -95 -4 -95 -9z"/>
<path d="M393 1019 c-40 -12 -63 -43 -63 -86 0 -40 17 -57 94 -94 64 -31 76
-42 76 -75 0 -36 -32 -56 -86 -52 -45 3 -48 5 -56 36 -11 41 -28 33 -28 -13 0
-31 3 -35 36 -41 53 -10 125 3 151 28 28 26 32 88 6 113 -9 9 -39 27 -67 39
-28 13 -59 31 -69 40 -39 40 -6 96 58 96 35 0 55 -15 55 -42 0 -30 17 -20 24
14 3 17 5 32 4 33 -10 9 -109 12 -135 4z"/>
<path d="M2576 1015 c-77 -29 -106 -75 -106 -163 0 -69 25 -114 80 -144 52
-29 165 -22 207 12 47 39 63 74 63 143 0 73 -22 117 -71 142 -44 23 -126 28
-173 10z m133 -18 c77 -39 83 -238 9 -278 -37 -20 -112 -15 -147 10 -46 33
-67 147 -41 215 20 55 120 84 179 53z"/>
<path d="M3540 1015 c-72 -33 -101 -80 -101 -161 0 -65 22 -108 72 -142 29
-21 44 -23 106 -20 80 4 111 20 151 78 17 25 22 47 22 93 0 70 -25 119 -73
143 -44 23 -135 28 -177 9z m141 -21 c52 -26 75 -124 49 -213 -18 -63 -84 -93
-155 -69 -62 21 -80 55 -80 153 0 88 13 116 60 136 33 13 94 10 126 -7z"/>
<path d="M659 871 c-40 -95 -70 -153 -81 -157 -32 -10 -19 -19 25 -18 54 2 54
2 34 17 -16 11 -16 15 5 57 25 48 48 58 112 46 26 -5 35 -14 48 -51 10 -26 13
-47 7 -50 -20 -13 -7 -20 41 -22 28 0 50 1 50 4 0 3 -8 12 -18 21 -10 10 -26
35 -34 57 -70 178 -98 240 -111 243 -9 2 -34 -45 -78 -147z"/>
<path d="M943 1009 c15 -9 17 -27 17 -154 0 -105 -3 -145 -12 -148 -7 -3 7 -6
32 -6 35 0 41 2 28 10 -16 9 -18 26 -18 127 l1 117 32 -36 c42 -46 81 -91 141
-161 73 -87 76 -84 76 92 0 131 2 150 18 159 13 8 6 10 -33 10 -39 0 -46 -2
-32 -10 14 -8 17 -26 17 -115 0 -58 -4 -104 -8 -102 -5 2 -53 54 -106 116 -91
105 -99 112 -134 112 -30 -1 -34 -3 -19 -11z"/>
<path d="M1545 963 c-14 -32 -45 -100 -68 -152 -26 -58 -50 -97 -62 -102 -23
-9 -16 -11 38 -13 36 -1 50 8 25 17 -10 3 -8 16 7 53 l21 49 58 0 c63 0 67 -3
87 -58 11 -33 11 -39 -1 -47 -25 -15 -3 -23 45 -15 39 5 44 9 32 18 -14 11
-44 81 -109 255 -11 28 -26 52 -33 52 -7 0 -25 -26 -40 -57z"/>
<path d="M1793 1009 c15 -9 17 -27 17 -149 0 -122 -2 -140 -17 -149 -14 -8 -6
-10 32 -10 28 1 42 3 33 6 -16 4 -18 19 -18 126 l0 121 28 -32 c15 -18 63 -75
107 -127 44 -52 86 -94 93 -95 9 0 12 36 12 150 0 147 1 151 23 160 17 7 10 9
-33 9 -47 0 -52 -2 -32 -11 21 -10 22 -17 22 -115 0 -56 -4 -103 -9 -103 -5 0
-33 28 -63 62 -29 35 -61 72 -72 83 -10 11 -29 35 -43 53 -21 26 -32 32 -62
32 -29 -1 -33 -3 -18 -11z"/>
<path d="M2144 985 c4 -48 12 -52 24 -16 10 28 15 31 56 31 l46 0 0 -140 c0
-136 -1 -141 -22 -150 -17 -6 -5 -9 47 -9 52 0 64 3 48 9 -22 9 -23 14 -23
150 l0 140 44 0 c42 0 45 -2 52 -32 l7 -33 12 35 c7 19 10 38 8 43 -2 4 -71 7
-153 7 l-148 0 2 -35z"/>
<path d="M2893 1009 c15 -9 17 -27 17 -149 0 -122 -2 -140 -17 -149 -14 -8 -8
-10 27 -10 35 0 41 2 28 10 -16 9 -18 26 -18 124 0 63 4 115 8 115 5 0 22 -17
38 -37 41 -52 167 -197 179 -205 5 -4 13 -8 18 -8 4 0 7 68 7 150 0 147 1 151
23 160 17 7 10 9 -32 9 -46 1 -52 -1 -39 -11 13 -10 17 -33 18 -108 1 -52 1
-101 1 -108 -1 -7 -43 35 -93 95 -51 59 -98 114 -105 121 -6 6 -27 12 -45 12
-27 -1 -30 -2 -15 -11z"/>
<path d="M3278 1010 c21 -9 22 -14 22 -149 0 -123 -2 -141 -17 -150 -14 -8 -3
-10 42 -10 33 1 52 3 43 6 -16 4 -18 20 -18 148 0 127 2 145 18 154 13 8 1 10
-48 10 -49 0 -59 -3 -42 -9z"/>
<path d="M3993 1006 c15 -11 17 -32 17 -155 0 -121 -2 -141 -16 -141 -8 0 -13
-4 -10 -9 4 -5 48 -8 100 -7 156 4 208 45 214 170 4 65 2 75 -21 102 -34 41
-85 54 -203 54 -85 -1 -96 -3 -81 -14z m191 -16 c59 -22 85 -132 51 -213 -17
-40 -71 -67 -135 -67 l-40 0 0 145 0 145 49 0 c27 0 61 -4 75 -10z"/>
<path d="M4380 1007 c12 -10 15 -39 15 -150 0 -112 -3 -140 -15 -147 -10 -7
24 -10 103 -10 l117 0 0 35 c0 42 -5 44 -24 7 -13 -25 -18 -27 -72 -25 l-59 1
-3 66 -3 66 45 0 c32 0 48 -5 55 -17 8 -14 10 -8 10 27 0 40 -1 43 -13 27 -10
-13 -25 -17 -53 -15 l-38 3 -3 63 -3 62 60 0 c51 0 61 -3 66 -20 8 -26 25 -16
25 16 l0 24 -112 0 c-91 -1 -110 -3 -98 -13z"/>
<path d="M4803 1006 c15 -11 17 -31 17 -150 0 -112 -3 -138 -15 -142 -8 -4
-15 -9 -15 -13 0 -9 97 -8 106 2 4 4 0 7 -9 7 -14 0 -17 10 -17 50 0 28 0 53
0 58 -1 4 22 10 50 13 64 9 95 29 110 73 9 29 8 40 -5 66 -21 41 -49 50 -153
50 -75 -1 -84 -3 -69 -14z m161 -22 c16 -15 20 -38 17 -79 -3 -30 -39 -55 -77
-55 l-34 0 0 75 0 75 39 0 c23 0 46 -7 55 -16z"/>
<path d="M5166 993 c-7 -16 -26 -56 -40 -91 -59 -140 -86 -192 -101 -192 -8 0
-15 -4 -15 -9 0 -5 20 -9 45 -9 42 0 60 11 33 21 -10 3 -8 16 7 53 l21 49 59
0 59 0 21 -49 c15 -37 17 -50 8 -53 -30 -10 -9 -21 37 -20 28 0 50 2 50 4 0 2
-8 11 -18 21 -10 10 -43 82 -72 160 -31 82 -59 142 -67 142 -7 0 -19 -12 -27
-27z"/>
<path d="M5403 1009 c15 -9 17 -27 17 -154 0 -90 -4 -145 -10 -145 -5 0 -10
-4 -10 -9 0 -4 45 -7 99 -6 77 1 106 6 132 21 118 69 115 248 -4 293 -38 15
-249 14 -224 0z m192 -15 c39 -10 65 -64 65 -135 0 -107 -51 -157 -150 -147
l-35 3 -3 143 -3 142 53 0 c29 0 62 -3 73 -6z"/>
<path d="M5783 1009 c14 -9 17 -26 17 -120 0 -124 11 -159 60 -184 33 -17 106
-20 144 -5 51 19 66 63 66 188 0 107 1 113 23 122 17 7 10 9 -33 9 -42 0 -51
-2 -37 -10 14 -8 17 -25 17 -113 0 -123 -11 -160 -51 -176 -34 -14 -96 -7
-117 13 -20 21 -31 82 -32 178 0 79 2 87 23 97 18 9 12 11 -38 11 -45 0 -56
-2 -42 -10z"/>
<path d="M6200 869 c-44 -102 -71 -154 -85 -159 -21 -9 -18 -10 43 -13 31 -2
44 7 21 15 -9 3 -9 14 1 43 19 61 26 65 88 63 l56 -3 19 -49 c14 -40 15 -51 5
-57 -15 -10 -16 -10 45 -14 50 -3 56 1 31 20 -15 10 -91 191 -115 273 -19 64
-40 42 -109 -119z"/>
<path d="M2387 443 c-10 -19 -29 -104 -24 -109 3 -3 13 8 23 24 22 38 52 52
114 52 l50 0 0 -147 c0 -197 -5 -222 -41 -230 -16 -3 -27 -9 -24 -13 5 -9 172
-6 181 3 4 4 -2 7 -14 7 -51 0 -50 -1 -52 196 l-1 184 61 0 c51 0 65 -4 85
-25 14 -13 25 -31 25 -40 0 -8 5 -15 11 -15 12 0 3 99 -11 113 -4 5 -17 4 -28
-2 -26 -14 -318 -15 -327 -1 -7 12 -22 13 -28 3z"/>
<path d="M2970 435 c-7 -8 -19 -15 -26 -15 -8 0 -14 -5 -14 -11 0 -12 -89
-244 -122 -318 -13 -30 -29 -47 -49 -54 -16 -6 -29 -14 -29 -17 0 -7 138 -5
145 2 3 3 -8 8 -25 11 -16 4 -30 10 -30 15 0 4 10 35 23 67 l23 60 80 3 80 3
17 -54 c22 -71 21 -86 -5 -97 -13 -5 -21 -9 -18 -10 15 -5 170 -4 170 0 0 3
-13 11 -29 16 -31 12 -35 19 -122 268 -27 77 -51 141 -53 143 -2 2 -9 -3 -16
-12z"/>
<path d="M3820 435 c-7 -8 -19 -15 -26 -15 -8 0 -14 -9 -14 -20 0 -11 -30 -95
-67 -187 -60 -147 -71 -167 -98 -179 -16 -7 -28 -14 -25 -14 25 -5 127 -6 134
-2 6 3 -4 10 -21 16 l-30 11 25 68 25 68 80 -3 79 -3 19 -60 c20 -65 19 -85
-7 -85 -10 0 -14 -3 -11 -6 5 -6 135 -9 165 -4 4 0 -7 7 -25 15 -38 16 -46 29
-93 169 -86 251 -89 257 -110 231z"/>
<path d="M3220 420 c0 -5 13 -10 29 -10 25 0 29 -4 35 -37 8 -50 8 -262 0
-302 -5 -25 -13 -33 -35 -38 -59 -11 -17 -19 104 -18 138 2 175 11 200 54 32
54 12 125 -42 152 -14 8 -28 14 -30 16 -2 1 11 14 28 29 29 24 32 31 29 78 -4
74 -32 86 -195 86 -76 0 -123 -4 -123 -10z m237 -26 c42 -27 42 -101 0 -128
-12 -8 -42 -16 -67 -18 l-45 -3 -3 74 c-4 100 -1 105 51 97 23 -4 52 -14 64
-22z m-2 -179 c88 -43 67 -169 -31 -182 -34 -4 -46 -1 -63 16 -18 18 -21 33
-21 101 l0 80 41 0 c23 0 56 -7 74 -15z"/>
<path d="M3980 421 c0 -5 13 -11 29 -14 24 -5 40 -24 90 -104 l61 -98 0 -82
c0 -80 -1 -83 -25 -89 -41 -10 -23 -15 64 -17 82 -2 106 6 51 16 l-30 6 0 82
0 81 78 104 c58 78 83 104 100 104 12 0 22 5 22 10 0 6 -28 10 -65 10 -37 0
-65 -4 -65 -10 0 -5 9 -10 20 -10 11 0 20 -3 20 -8 0 -7 -32 -57 -93 -145
l-26 -38 -14 23 c-89 145 -98 168 -68 168 12 0 21 5 21 10 0 6 -35 10 -85 10
-47 0 -85 -4 -85 -9z"/>
</g>
</svg>
